<svg width="1917" height="1258" viewBox="0 0 1917 1258" fill="none" xmlns="http://www.w3.org/2000/svg">
<path d="M1506.57 1258C1397.19 1258 1294.36 1214.61 1217 1135.87L1220.7 1132.1C1378.33 1292.61 1634.77 1292.61 1792.4 1132.1C1868.76 1054.34 1910.81 950.958 1910.81 841.023C1910.81 731.088 1868.76 627.68 1792.4 549.95L1796.11 546.178C1873.46 624.952 1916.04 729.671 1916.04 841.05C1916.04 952.429 1873.44 1057.15 1796.11 1135.92C1718.78 1214.64 1615.94 1258 1506.57 1258Z" fill="#F9F9F9"/>
<path d="M1506.57 1229.14C1408.91 1229.14 1311.27 1191.29 1236.94 1115.59L1240.64 1111.82C1387.26 1261.13 1625.84 1261.13 1772.49 1111.82C1919.11 962.513 1919.11 719.533 1772.49 570.225L1776.2 566.453C1924.87 717.848 1924.87 964.198 1776.2 1115.62C1701.86 1191.29 1604.2 1229.14 1506.57 1229.14Z" fill="#F9F9F9"/>
<path d="M1506.57 1200.63C1412.24 1200.63 1323.56 1163.2 1256.85 1095.29L1260.55 1091.52C1326.27 1158.44 1413.63 1195.28 1506.54 1195.28C1599.47 1195.28 1686.84 1158.42 1752.53 1091.52C1818.25 1024.6 1854.42 935.632 1854.42 841.023C1854.42 746.388 1818.22 657.424 1752.53 590.527L1756.23 586.755C1822.92 654.669 1859.67 744.997 1859.67 841.05C1859.67 937.103 1822.92 1027.4 1756.23 1095.34C1689.57 1163.2 1600.89 1200.63 1506.57 1200.63Z" fill="#F9F9F9"/>
<path d="M1506.57 1171.76C1423.35 1171.76 1340.14 1139.51 1276.78 1074.99L1280.49 1071.22C1405.15 1198.16 1607.98 1198.16 1732.65 1071.22C1857.31 944.271 1857.31 737.722 1732.65 610.775L1736.35 607.004C1863.06 736.037 1863.06 945.983 1736.35 1074.99C1672.99 1139.51 1589.78 1171.76 1506.57 1171.76Z" fill="#F9F9F9"/>
<path d="M1506.57 1143.09C1430.58 1143.09 1354.56 1113.64 1296.69 1054.71L1300.4 1050.94C1414.08 1166.71 1599.03 1166.71 1712.68 1050.94C1826.37 935.177 1826.37 746.843 1712.68 631.104L1716.39 627.332C1832.09 745.158 1832.09 936.915 1716.39 1054.74C1658.57 1113.64 1582.56 1143.09 1506.57 1143.09Z" fill="#F9F9F9"/>
<path d="M1506.57 1114.42C1437.77 1114.42 1368.98 1087.75 1316.63 1034.44L1320.33 1030.67C1423.01 1135.23 1590.09 1135.23 1692.77 1030.67C1742.52 980.007 1769.92 912.655 1769.92 841.023C1769.92 769.392 1742.52 702.04 1692.77 651.379L1696.48 647.608C1747.22 699.258 1775.14 767.974 1775.14 841.023C1775.14 914.073 1747.2 982.789 1696.48 1034.44C1644.13 1087.75 1575.36 1114.42 1506.57 1114.42Z" fill="#F9F9F9"/>
<path d="M1506.57 1085.74C1445 1085.74 1383.43 1061.88 1336.54 1014.14L1340.24 1010.37C1431.94 1103.74 1581.14 1103.74 1672.84 1010.37C1764.53 916.988 1764.53 765.059 1672.84 671.681L1676.54 667.91C1770.29 763.374 1770.29 918.7 1676.54 1014.16C1629.71 1061.86 1568.14 1085.74 1506.57 1085.74Z" fill="#F9F9F9"/>
<path d="M1669.95 527L1654.79 542.407V527H1669.95Z" fill="#F9F9F9"/>
<path d="M1698 527L1654.79 571.001V555.594L1682.87 527H1698Z" fill="#F9F9F9"/>
<path d="M1782 527L1654.79 656.514V641.348L1767.08 527H1782Z" fill="#F9F9F9"/>
<path d="M1754.16 527L1654.79 628.161V612.755L1739.03 527H1754.16Z" fill="#F9F9F9"/>
<path d="M1726.08 527L1654.79 599.594V584.161L1710.95 527H1726.08Z" fill="#F9F9F9"/>
<g filter="url(#filter0_ddii_1026_3)">
<circle r="209.5" transform="matrix(1 0 0 -1 -134.5 537.5)" fill="url(#paint0_radial_1026_3)"/>
<circle r="209" transform="matrix(1 0 0 -1 -134.5 537.5)" stroke="url(#paint1_linear_1026_3)"/>
</g>
<g filter="url(#filter1_ddii_1026_3)">
<circle r="209.5" transform="matrix(1 0 0 -1 -134.5 289.5)" fill="url(#paint2_radial_1026_3)"/>
<circle r="209" transform="matrix(1 0 0 -1 -134.5 289.5)" stroke="url(#paint3_linear_1026_3)"/>
</g>
<path d="M196.174 1044.92C191.904 1044.92 188.816 1048.01 188.816 1052.24C188.816 1056.51 191.904 1059.6 196.136 1059.6C200.406 1059.6 203.456 1056.51 203.494 1052.28C203.494 1048.01 200.444 1044.92 196.174 1044.92Z" fill="#BFD0D1"/>
<path d="M269.599 1044.92C265.329 1044.84 262.127 1047.86 262.05 1052.09C261.974 1056.36 265.024 1059.56 269.217 1059.64C273.487 1059.71 276.651 1056.7 276.728 1052.47C276.842 1048.16 273.83 1045 269.599 1044.92Z" fill="#BFD0D1"/>
<path d="M342.756 1044.92C338.487 1044.88 335.36 1047.97 335.322 1052.2C335.284 1056.47 338.372 1059.6 342.604 1059.64C346.874 1059.67 349.962 1056.62 350 1052.35C350.038 1048.05 347.026 1044.96 342.756 1044.92Z" fill="#BFD0D1"/>
<path d="M12.9559 1096.27C17.2256 1096.27 20.3136 1093.22 20.3136 1088.95C20.3136 1084.68 17.2637 1081.59 12.994 1081.59C8.72422 1081.59 5.63627 1084.68 5.63627 1088.91C5.59815 1093.15 8.72422 1096.23 12.9559 1096.27Z" fill="#BFD0D1"/>
<path d="M86.1135 1096.27C90.3833 1096.31 93.5093 1093.3 93.5856 1089.03C93.6237 1084.72 90.612 1081.59 86.3804 1081.56C82.1106 1081.52 78.9464 1084.53 78.9083 1088.76C78.8321 1093.03 81.92 1096.2 86.1135 1096.27Z" fill="#BFD0D1"/>
<path d="M159.424 1081.56C155.192 1081.59 152.104 1084.72 152.142 1088.99C152.18 1093.22 155.344 1096.31 159.576 1096.27C163.846 1096.23 166.858 1093.11 166.819 1088.84C166.819 1084.57 163.693 1081.52 159.424 1081.56Z" fill="#BFD0D1"/>
<path d="M233.077 1081.56C228.807 1081.44 225.567 1084.42 225.414 1088.61C225.3 1092.88 228.274 1096.12 232.467 1096.27C236.737 1096.39 239.977 1093.41 240.092 1089.22C240.244 1084.87 237.309 1081.67 233.077 1081.56Z" fill="#BFD0D1"/>
<path d="M306.196 1081.56C301.927 1081.52 298.762 1084.57 298.724 1088.76C298.686 1093.03 301.736 1096.2 305.968 1096.23C310.237 1096.27 313.364 1093.22 313.402 1088.99C313.44 1084.72 310.428 1081.59 306.196 1081.56Z" fill="#BFD0D1"/>
<path d="M49.63 1132.91C53.8998 1132.87 56.9496 1129.78 56.9115 1125.51C56.9115 1121.24 53.8235 1118.19 49.5538 1118.19C45.284 1118.19 42.2342 1121.32 42.2342 1125.59C42.2723 1129.82 45.3984 1132.91 49.63 1132.91Z" fill="#BFD0D1"/>
<path d="M115.544 1125.02C115.316 1129.32 118.213 1132.64 122.368 1132.91C126.638 1133.14 129.993 1130.24 130.222 1126.08C130.45 1121.78 127.591 1118.46 123.436 1118.23C119.09 1117.96 115.773 1120.86 115.544 1125.02Z" fill="#BFD0D1"/>
<path d="M196.441 1118.19C192.171 1118.08 188.931 1121.01 188.816 1125.25C188.702 1129.52 191.676 1132.76 195.869 1132.91C200.139 1133.02 203.379 1130.05 203.494 1125.86C203.608 1121.51 200.673 1118.31 196.441 1118.19Z" fill="#BFD0D1"/>
<path d="M269.294 1118.19C265.062 1118.23 262.012 1121.39 262.088 1125.66C262.127 1129.9 265.291 1132.95 269.561 1132.91C273.792 1132.83 276.804 1129.71 276.766 1125.44C276.69 1121.17 273.563 1118.15 269.294 1118.19Z" fill="#BFD0D1"/>
<path d="M86.2279 1169.54C90.4976 1169.54 93.5475 1166.49 93.5856 1162.22C93.5856 1157.95 90.5358 1154.87 86.266 1154.87C81.9963 1154.87 78.9083 1157.95 78.9083 1162.19C78.9083 1166.42 81.9963 1169.54 86.2279 1169.54Z" fill="#BFD0D1"/>
<path d="M159.347 1154.83C155.116 1154.91 152.066 1158.07 152.142 1162.34C152.219 1166.57 155.383 1169.62 159.652 1169.54C163.884 1169.47 166.896 1166.34 166.82 1162.03C166.781 1157.76 163.655 1154.75 159.347 1154.83Z" fill="#BFD0D1"/>
<path d="M232.925 1154.83C228.655 1154.79 225.491 1157.84 225.453 1162.03C225.414 1166.3 228.464 1169.47 232.696 1169.51C236.966 1169.54 240.092 1166.53 240.13 1162.26C240.168 1157.99 237.156 1154.87 232.925 1154.83Z" fill="#BFD0D1"/>
<path d="M122.597 1206.18C126.867 1206.29 130.107 1203.32 130.222 1199.13C130.336 1194.82 127.401 1191.62 123.207 1191.5C118.937 1191.39 115.697 1194.36 115.544 1198.56C115.392 1202.79 118.404 1206.03 122.597 1206.18Z" fill="#BFD0D1"/>
<path d="M196.327 1191.46C192.057 1191.39 188.854 1194.4 188.778 1198.63C188.702 1202.9 191.752 1206.1 195.945 1206.18C200.215 1206.26 203.379 1203.24 203.455 1199.01C203.57 1194.71 200.558 1191.54 196.327 1191.46Z" fill="#BFD0D1"/>
<path d="M159.386 1228.1C155.154 1228.18 152.104 1231.3 152.18 1235.57C152.257 1239.8 155.421 1242.85 159.652 1242.78C163.884 1242.7 166.896 1239.58 166.858 1235.31C166.781 1231.07 163.655 1228.02 159.386 1228.1Z" fill="#BFD0D1"/>
<path d="M86.2661 949.728C90.5359 949.728 93.5857 946.64 93.5857 942.332C93.5857 938.062 90.4978 935.013 86.228 935.013C81.9582 935.013 78.8703 938.139 78.9084 942.37C78.9084 946.64 82.0345 949.728 86.2661 949.728Z" fill="#BFD0D1"/>
<path d="M166.819 942.866C167.048 938.558 164.189 935.241 160.034 935.013C155.726 934.784 152.409 937.681 152.18 941.837C151.952 946.106 154.849 949.461 159.004 949.69C163.274 949.957 166.629 947.021 166.819 942.866Z" fill="#BFD0D1"/>
<path d="M232.925 935.013C228.655 934.974 225.491 938.024 225.453 942.218C225.414 946.488 228.464 949.652 232.696 949.69C236.966 949.728 240.092 946.716 240.13 942.447C240.168 938.177 237.156 935.089 232.925 935.013Z" fill="#BFD0D1"/>
<path d="M49.7445 986.364C53.9761 986.288 56.9878 983.162 56.9497 978.892C56.9115 974.66 53.7855 971.61 49.4776 971.687C45.246 971.763 42.1961 974.889 42.2724 979.159C42.3105 983.352 45.4747 986.402 49.7445 986.364Z" fill="#BFD0D1"/>
<path d="M123.016 971.649C118.747 971.611 115.621 974.622 115.544 978.854C115.506 983.124 118.518 986.288 122.75 986.326C127.019 986.364 130.145 983.353 130.222 979.083C130.26 974.851 127.248 971.725 123.016 971.649Z" fill="#BFD0D1"/>
<path d="M196.212 971.649C191.943 971.611 188.816 974.661 188.816 978.93C188.778 983.2 191.866 986.326 196.098 986.364C200.368 986.402 203.456 983.314 203.494 979.083C203.494 974.775 200.482 971.687 196.212 971.649Z" fill="#BFD0D1"/>
<path d="M269.408 971.649C265.138 971.649 262.089 974.737 262.089 979.006C262.089 983.276 265.215 986.364 269.446 986.326C273.716 986.326 276.766 983.238 276.766 978.93C276.728 974.698 273.678 971.649 269.408 971.649Z" fill="#BFD0D1"/>
<path d="M12.8797 1023C17.1494 1023.04 20.2374 1019.99 20.2755 1015.72C20.3136 1011.45 17.2638 1008.32 13.0322 1008.28C8.76244 1008.25 5.63636 1011.33 5.59824 1015.57C5.59824 1019.8 8.68619 1022.96 12.8797 1023Z" fill="#BFD0D1"/>
<path d="M86.1516 1023C90.4214 1023.04 93.5093 1019.99 93.5474 1015.72C93.5856 1011.45 90.5357 1008.32 86.3041 1008.28C82.0343 1008.25 78.9083 1011.33 78.8701 1015.57C78.8701 1019.8 81.9581 1022.96 86.1516 1023Z" fill="#BFD0D1"/>
<path d="M159.805 1008.28C155.535 1008.17 152.295 1011.14 152.142 1015.34C152.028 1019.61 155.001 1022.85 159.195 1023C163.465 1023.15 166.705 1020.14 166.819 1015.95C166.972 1011.6 164.037 1008.44 159.805 1008.28Z" fill="#BFD0D1"/>
<path d="M232.81 1008.28C228.54 1008.28 225.452 1011.37 225.452 1015.6C225.452 1019.87 228.54 1022.96 232.772 1023C237.042 1023 240.13 1019.95 240.13 1015.68C240.13 1011.37 237.08 1008.28 232.81 1008.28Z" fill="#BFD0D1"/>
<path d="M306.12 1008.28C301.85 1008.25 298.724 1011.33 298.686 1015.57C298.648 1019.84 301.736 1022.96 305.968 1023C310.237 1023.04 313.325 1019.95 313.364 1015.72C313.402 1011.41 310.39 1008.32 306.12 1008.28Z" fill="#BFD0D1"/>
<path d="M49.325 1059.64C53.5948 1059.79 56.8352 1056.78 56.9496 1052.58C57.064 1048.28 54.1285 1045.07 49.935 1044.92C45.6652 1044.81 42.4248 1047.78 42.2723 1051.97C42.1198 1056.24 45.1315 1059.48 49.325 1059.64Z" fill="#BFD0D1"/>
<path d="M122.978 1044.92C118.709 1044.88 115.544 1047.93 115.506 1052.16C115.468 1056.43 118.518 1059.6 122.75 1059.64C127.019 1059.67 130.145 1056.62 130.183 1052.39C130.26 1048.08 127.248 1044.96 122.978 1044.92Z" fill="#BFD0D1"/>
<defs>
<filter id="filter0_ddii_1026_3" x="-424" y="248" width="597" height="597" filterUnits="userSpaceOnUse" color-interpolation-filters="sRGB">
<feFlood flood-opacity="0" result="BackgroundImageFix"/>
<feColorMatrix in="SourceAlpha" type="matrix" values="0 0 0 0 0 0 0 0 0 0 0 0 0 0 0 0 0 0 127 0" result="hardAlpha"/>
<feOffset dx="34" dy="34"/>
<feGaussianBlur stdDeviation="32"/>
<feColorMatrix type="matrix" values="0 0 0 0 0.196078 0 0 0 0 0.211765 0 0 0 0 0.301961 0 0 0 0.48 0"/>
<feBlend mode="multiply" in2="BackgroundImageFix" result="effect1_dropShadow_1026_3"/>
<feColorMatrix in="SourceAlpha" type="matrix" values="0 0 0 0 0 0 0 0 0 0 0 0 0 0 0 0 0 0 127 0" result="hardAlpha"/>
<feOffset dx="-32" dy="-32"/>
<feGaussianBlur stdDeviation="24"/>
<feColorMatrix type="matrix" values="0 0 0 0 0.298039 0 0 0 0 0.32549 0 0 0 0 0.462745 0 0 0 0.17 0"/>
<feBlend mode="normal" in2="effect1_dropShadow_1026_3" result="effect2_dropShadow_1026_3"/>
<feBlend mode="normal" in="SourceGraphic" in2="effect2_dropShadow_1026_3" result="shape"/>
<feColorMatrix in="SourceAlpha" type="matrix" values="0 0 0 0 0 0 0 0 0 0 0 0 0 0 0 0 0 0 127 0" result="hardAlpha"/>
<feOffset dx="2" dy="2"/>
<feGaussianBlur stdDeviation="1"/>
<feComposite in2="hardAlpha" operator="arithmetic" k2="-1" k3="1"/>
<feColorMatrix type="matrix" values="0 0 0 0 0.324479 0 0 0 0 0.360489 0 0 0 0 0.533333 0 0 0 0.11 0"/>
<feBlend mode="screen" in2="shape" result="effect3_innerShadow_1026_3"/>
<feColorMatrix in="SourceAlpha" type="matrix" values="0 0 0 0 0 0 0 0 0 0 0 0 0 0 0 0 0 0 127 0" result="hardAlpha"/>
<feOffset dx="-1" dy="-1"/>
<feGaussianBlur stdDeviation="2"/>
<feComposite in2="hardAlpha" operator="arithmetic" k2="-1" k3="1"/>
<feColorMatrix type="matrix" values="0 0 0 0 0.172549 0 0 0 0 0.188235 0 0 0 0 0.266667 0 0 0 0.2 0"/>
<feBlend mode="multiply" in2="effect3_innerShadow_1026_3" result="effect4_innerShadow_1026_3"/>
</filter>
<filter id="filter1_ddii_1026_3" x="-424" y="0" width="597" height="597" filterUnits="userSpaceOnUse" color-interpolation-filters="sRGB">
<feFlood flood-opacity="0" result="BackgroundImageFix"/>
<feColorMatrix in="SourceAlpha" type="matrix" values="0 0 0 0 0 0 0 0 0 0 0 0 0 0 0 0 0 0 127 0" result="hardAlpha"/>
<feOffset dx="34" dy="34"/>
<feGaussianBlur stdDeviation="32"/>
<feColorMatrix type="matrix" values="0 0 0 0 0.196078 0 0 0 0 0.211765 0 0 0 0 0.301961 0 0 0 0.48 0"/>
<feBlend mode="multiply" in2="BackgroundImageFix" result="effect1_dropShadow_1026_3"/>
<feColorMatrix in="SourceAlpha" type="matrix" values="0 0 0 0 0 0 0 0 0 0 0 0 0 0 0 0 0 0 127 0" result="hardAlpha"/>
<feOffset dx="-32" dy="-32"/>
<feGaussianBlur stdDeviation="24"/>
<feColorMatrix type="matrix" values="0 0 0 0 0.298039 0 0 0 0 0.32549 0 0 0 0 0.462745 0 0 0 0.17 0"/>
<feBlend mode="normal" in2="effect1_dropShadow_1026_3" result="effect2_dropShadow_1026_3"/>
<feBlend mode="normal" in="SourceGraphic" in2="effect2_dropShadow_1026_3" result="shape"/>
<feColorMatrix in="SourceAlpha" type="matrix" values="0 0 0 0 0 0 0 0 0 0 0 0 0 0 0 0 0 0 127 0" result="hardAlpha"/>
<feOffset dx="2" dy="2"/>
<feGaussianBlur stdDeviation="1"/>
<feComposite in2="hardAlpha" operator="arithmetic" k2="-1" k3="1"/>
<feColorMatrix type="matrix" values="0 0 0 0 0.324479 0 0 0 0 0.360489 0 0 0 0 0.533333 0 0 0 0.11 0"/>
<feBlend mode="screen" in2="shape" result="effect3_innerShadow_1026_3"/>
<feColorMatrix in="SourceAlpha" type="matrix" values="0 0 0 0 0 0 0 0 0 0 0 0 0 0 0 0 0 0 127 0" result="hardAlpha"/>
<feOffset dx="-1" dy="-1"/>
<feGaussianBlur stdDeviation="2"/>
<feComposite in2="hardAlpha" operator="arithmetic" k2="-1" k3="1"/>
<feColorMatrix type="matrix" values="0 0 0 0 0.172549 0 0 0 0 0.188235 0 0 0 0 0.266667 0 0 0 0.2 0"/>
<feBlend mode="multiply" in2="effect3_innerShadow_1026_3" result="effect4_innerShadow_1026_3"/>
</filter>
<radialGradient id="paint0_radial_1026_3" cx="0" cy="0" r="1" gradientUnits="userSpaceOnUse" gradientTransform="rotate(45) scale(592.555 882.179)">
<stop offset="0.0503676" stop-color="#1E242C"/>
<stop offset="0.825281" stop-color="#1E242C"/>
</radialGradient>
<linearGradient id="paint1_linear_1026_3" x1="0" y1="0" x2="313.054" y2="316.609" gradientUnits="userSpaceOnUse">
<stop stop-color="#5D658E" stop-opacity="0.48"/>
<stop offset="0.909911" stop-color="#23273E" stop-opacity="0"/>
</linearGradient>
<radialGradient id="paint2_radial_1026_3" cx="0" cy="0" r="1" gradientUnits="userSpaceOnUse" gradientTransform="rotate(45) scale(592.555 882.179)">
<stop offset="0.0503676" stop-color="#DF1A1A"/>
<stop offset="0.825281" stop-color="#371510"/>
</radialGradient>
<linearGradient id="paint3_linear_1026_3" x1="0" y1="0" x2="313.054" y2="316.609" gradientUnits="userSpaceOnUse">
<stop stop-color="#5D658E" stop-opacity="0.48"/>
<stop offset="0.909911" stop-color="#23273E" stop-opacity="0"/>
</linearGradient>
</defs>
</svg>
