<svg width="1920" height="1103" viewBox="0 0 1920 1103" fill="none" xmlns="http://www.w3.org/2000/svg">
<path d="M145.705 813C23.8124 813 -90.7912 765.519 -177 679.34L-172.873 675.212C2.79434 850.879 288.586 850.879 464.253 675.212C549.349 590.116 596.215 476.976 596.215 356.664C596.215 236.353 549.349 123.183 464.253 38.1163L468.38 33.9888C554.589 120.198 602.04 234.801 602.04 356.694C602.04 478.586 554.56 593.19 468.38 679.398C382.201 765.549 267.597 813 145.705 813Z" fill="#F9F9F9"/>
<path d="M145.705 781.414C36.8681 781.414 -71.9395 739.993 -154.782 657.151L-150.654 653.023C12.7471 816.425 278.633 816.425 442.064 653.023C605.465 489.622 605.465 223.706 442.064 60.305L446.191 56.1775C611.876 221.862 611.876 491.466 446.191 657.18C363.349 739.993 254.512 781.414 145.705 781.414Z" fill="#F9F9F9"/>
<path d="M145.705 750.21C40.5857 750.21 -58.2397 709.257 -132.593 634.933L-128.465 630.805C-55.2246 704.046 42.1372 744.355 145.676 744.355C249.243 744.355 346.605 704.017 419.816 630.805C493.057 557.565 533.366 460.203 533.366 356.664C533.366 253.097 493.028 155.735 419.816 82.5234L423.944 78.3959C498.268 152.72 539.221 251.575 539.221 356.694C539.221 461.813 498.268 560.638 423.944 634.991C349.649 709.257 250.824 750.21 145.705 750.21Z" fill="#F9F9F9"/>
<path d="M145.705 718.624C52.9682 718.624 -39.7685 683.321 -110.375 612.715L-106.247 608.587C32.682 747.516 258.728 747.516 397.657 608.587C536.586 469.658 536.586 243.612 397.657 104.683L401.784 100.555C542.997 241.768 542.997 471.531 401.784 612.715C331.178 683.321 238.441 718.624 145.705 718.624Z" fill="#F9F9F9"/>
<path d="M145.705 687.243C61.0182 687.243 -23.6977 655.014 -88.1859 590.526L-84.0585 586.398C42.6348 713.091 248.745 713.091 375.409 586.398C502.103 459.705 502.103 253.594 375.409 126.93L379.537 122.803C508.484 251.75 508.484 461.608 379.537 590.555C315.107 655.014 230.391 687.243 145.705 687.243Z" fill="#F9F9F9"/>
<path d="M145.705 655.863C69.039 655.863 -7.62685 626.678 -65.9678 568.337L-61.8403 564.209C52.5876 678.637 238.793 678.637 353.221 564.209C408.663 508.767 439.195 435.057 439.195 356.664C439.195 278.272 408.663 204.562 353.221 149.119L357.348 144.992C413.903 201.518 445.021 276.72 445.021 356.664C445.021 436.609 413.874 511.811 357.348 568.337C299.007 626.678 222.371 655.863 145.705 655.863Z" fill="#F9F9F9"/>
<path d="M145.705 624.483C77.0891 624.483 8.47331 598.371 -43.7789 546.119L-39.6514 541.992C62.5404 644.183 228.811 644.183 331.002 541.992C433.194 439.8 433.194 273.53 331.002 171.338L335.13 167.21C439.605 271.685 439.605 441.673 335.13 546.148C282.936 598.342 214.321 624.483 145.705 624.483Z" fill="#F9F9F9"/>
<path d="M327.783 13L310.892 29.8612V13H327.783Z" fill="#F9F9F9"/>
<path d="M359.046 13L310.892 61.154V44.2928L342.185 13H359.046Z" fill="#F9F9F9"/>
<path d="M452.661 13L310.892 154.74V138.142L436.034 13H452.661Z" fill="#F9F9F9"/>
<path d="M421.632 13L310.892 123.71V106.849L404.77 13H421.632Z" fill="#F9F9F9"/>
<path d="M390.339 13L310.892 92.4467V75.5562L373.478 13H390.339Z" fill="#F9F9F9"/>
<g filter="url(#filter0_ddii_504_3)">
<circle r="209.5" transform="matrix(1 0 0 -1 -109.5 46.5)" fill="url(#paint0_radial_504_3)"/>
<circle r="209" transform="matrix(1 0 0 -1 -109.5 46.5)" stroke="url(#paint1_linear_504_3)"/>
</g>
<g filter="url(#filter1_ddii_504_3)">
<circle r="209.5" transform="matrix(1 0 0 -1 243.5 -126.5)" fill="url(#paint2_radial_504_3)"/>
<circle r="209" transform="matrix(1 0 0 -1 243.5 -126.5)" stroke="url(#paint3_linear_504_3)"/>
</g>
<circle cx="1757" cy="-5" r="902" fill="url(#paint4_linear_504_3)"/>
<rect x="1695.33" y="47" width="232.959" height="89.8128" rx="44.9064" transform="rotate(42.202 1695.33 47)" fill="url(#paint5_linear_504_3)"/>
<rect x="1386.33" y="3" width="232.959" height="89.8128" rx="44.9064" transform="rotate(42.202 1386.33 3)" fill="url(#paint6_linear_504_3)"/>
<rect x="1709.33" y="299" width="232.959" height="89.8128" rx="44.9064" transform="rotate(42.202 1709.33 299)" fill="url(#paint7_linear_504_3)"/>
<g filter="url(#filter2_ddii_504_3)">
<path d="M1068 444.788L1068.07 444.863L1068.15 444.931L1162.62 524.703C1181.07 540.284 1181.07 568.716 1162.62 584.297L1068.15 664.069L1068.07 664.137L1068 664.212L979.137 756.796C963.788 772.788 938.212 772.788 922.863 756.796L834.003 664.212L833.93 664.137L833.85 664.069L739.385 584.297C720.935 568.716 720.935 540.284 739.385 524.703L833.85 444.931L833.93 444.863L834.003 444.788L922.863 352.204C938.212 336.212 963.788 336.212 979.137 352.204L1068 444.788Z" stroke="url(#paint8_linear_504_3)" stroke-width="4"/>
</g>
<g filter="url(#filter3_ddii_504_3)">
<path d="M1327 678.788L1327.07 678.863L1327.15 678.931L1421.62 758.703C1440.07 774.284 1440.07 802.716 1421.62 818.297L1327.15 898.069L1327.07 898.137L1327 898.212L1238.14 990.796C1222.79 1006.79 1197.21 1006.79 1181.86 990.796L1093 898.212L1092.93 898.137L1092.85 898.069L998.385 818.297C979.935 802.716 979.935 774.284 998.385 758.703L1092.85 678.931L1092.93 678.863L1093 678.788L1181.86 586.204C1197.21 570.212 1222.79 570.212 1238.14 586.204L1327 678.788Z" stroke="url(#paint9_linear_504_3)" stroke-width="4"/>
</g>
<defs>
<filter id="filter0_ddii_504_3" x="-399" y="-243" width="597" height="597" filterUnits="userSpaceOnUse" color-interpolation-filters="sRGB">
<feFlood flood-opacity="0" result="BackgroundImageFix"/>
<feColorMatrix in="SourceAlpha" type="matrix" values="0 0 0 0 0 0 0 0 0 0 0 0 0 0 0 0 0 0 127 0" result="hardAlpha"/>
<feOffset dx="34" dy="34"/>
<feGaussianBlur stdDeviation="32"/>
<feColorMatrix type="matrix" values="0 0 0 0 0.196078 0 0 0 0 0.211765 0 0 0 0 0.301961 0 0 0 0.48 0"/>
<feBlend mode="multiply" in2="BackgroundImageFix" result="effect1_dropShadow_504_3"/>
<feColorMatrix in="SourceAlpha" type="matrix" values="0 0 0 0 0 0 0 0 0 0 0 0 0 0 0 0 0 0 127 0" result="hardAlpha"/>
<feOffset dx="-32" dy="-32"/>
<feGaussianBlur stdDeviation="24"/>
<feColorMatrix type="matrix" values="0 0 0 0 0.298039 0 0 0 0 0.32549 0 0 0 0 0.462745 0 0 0 0.17 0"/>
<feBlend mode="normal" in2="effect1_dropShadow_504_3" result="effect2_dropShadow_504_3"/>
<feBlend mode="normal" in="SourceGraphic" in2="effect2_dropShadow_504_3" result="shape"/>
<feColorMatrix in="SourceAlpha" type="matrix" values="0 0 0 0 0 0 0 0 0 0 0 0 0 0 0 0 0 0 127 0" result="hardAlpha"/>
<feOffset dx="2" dy="2"/>
<feGaussianBlur stdDeviation="1"/>
<feComposite in2="hardAlpha" operator="arithmetic" k2="-1" k3="1"/>
<feColorMatrix type="matrix" values="0 0 0 0 0.324479 0 0 0 0 0.360489 0 0 0 0 0.533333 0 0 0 0.11 0"/>
<feBlend mode="screen" in2="shape" result="effect3_innerShadow_504_3"/>
<feColorMatrix in="SourceAlpha" type="matrix" values="0 0 0 0 0 0 0 0 0 0 0 0 0 0 0 0 0 0 127 0" result="hardAlpha"/>
<feOffset dx="-1" dy="-1"/>
<feGaussianBlur stdDeviation="2"/>
<feComposite in2="hardAlpha" operator="arithmetic" k2="-1" k3="1"/>
<feColorMatrix type="matrix" values="0 0 0 0 0.172549 0 0 0 0 0.188235 0 0 0 0 0.266667 0 0 0 0.2 0"/>
<feBlend mode="multiply" in2="effect3_innerShadow_504_3" result="effect4_innerShadow_504_3"/>
</filter>
<filter id="filter1_ddii_504_3" x="-46" y="-416" width="597" height="597" filterUnits="userSpaceOnUse" color-interpolation-filters="sRGB">
<feFlood flood-opacity="0" result="BackgroundImageFix"/>
<feColorMatrix in="SourceAlpha" type="matrix" values="0 0 0 0 0 0 0 0 0 0 0 0 0 0 0 0 0 0 127 0" result="hardAlpha"/>
<feOffset dx="34" dy="34"/>
<feGaussianBlur stdDeviation="32"/>
<feColorMatrix type="matrix" values="0 0 0 0 0.196078 0 0 0 0 0.211765 0 0 0 0 0.301961 0 0 0 0.48 0"/>
<feBlend mode="multiply" in2="BackgroundImageFix" result="effect1_dropShadow_504_3"/>
<feColorMatrix in="SourceAlpha" type="matrix" values="0 0 0 0 0 0 0 0 0 0 0 0 0 0 0 0 0 0 127 0" result="hardAlpha"/>
<feOffset dx="-32" dy="-32"/>
<feGaussianBlur stdDeviation="24"/>
<feColorMatrix type="matrix" values="0 0 0 0 0.298039 0 0 0 0 0.32549 0 0 0 0 0.462745 0 0 0 0.17 0"/>
<feBlend mode="normal" in2="effect1_dropShadow_504_3" result="effect2_dropShadow_504_3"/>
<feBlend mode="normal" in="SourceGraphic" in2="effect2_dropShadow_504_3" result="shape"/>
<feColorMatrix in="SourceAlpha" type="matrix" values="0 0 0 0 0 0 0 0 0 0 0 0 0 0 0 0 0 0 127 0" result="hardAlpha"/>
<feOffset dx="2" dy="2"/>
<feGaussianBlur stdDeviation="1"/>
<feComposite in2="hardAlpha" operator="arithmetic" k2="-1" k3="1"/>
<feColorMatrix type="matrix" values="0 0 0 0 0.324479 0 0 0 0 0.360489 0 0 0 0 0.533333 0 0 0 0.11 0"/>
<feBlend mode="screen" in2="shape" result="effect3_innerShadow_504_3"/>
<feColorMatrix in="SourceAlpha" type="matrix" values="0 0 0 0 0 0 0 0 0 0 0 0 0 0 0 0 0 0 127 0" result="hardAlpha"/>
<feOffset dx="-1" dy="-1"/>
<feGaussianBlur stdDeviation="2"/>
<feComposite in2="hardAlpha" operator="arithmetic" k2="-1" k3="1"/>
<feColorMatrix type="matrix" values="0 0 0 0 0.172549 0 0 0 0 0.188235 0 0 0 0 0.266667 0 0 0 0.2 0"/>
<feBlend mode="multiply" in2="effect3_innerShadow_504_3" result="effect4_innerShadow_504_3"/>
</filter>
<filter id="filter2_ddii_504_3" x="643.547" y="258.21" width="632.905" height="610.58" filterUnits="userSpaceOnUse" color-interpolation-filters="sRGB">
<feFlood flood-opacity="0" result="BackgroundImageFix"/>
<feColorMatrix in="SourceAlpha" type="matrix" values="0 0 0 0 0 0 0 0 0 0 0 0 0 0 0 0 0 0 127 0" result="hardAlpha"/>
<feOffset dx="34" dy="34"/>
<feGaussianBlur stdDeviation="32"/>
<feColorMatrix type="matrix" values="0 0 0 0 0.196078 0 0 0 0 0.211765 0 0 0 0 0.301961 0 0 0 0.48 0"/>
<feBlend mode="multiply" in2="BackgroundImageFix" result="effect1_dropShadow_504_3"/>
<feColorMatrix in="SourceAlpha" type="matrix" values="0 0 0 0 0 0 0 0 0 0 0 0 0 0 0 0 0 0 127 0" result="hardAlpha"/>
<feOffset dx="-32" dy="-32"/>
<feGaussianBlur stdDeviation="24"/>
<feColorMatrix type="matrix" values="0 0 0 0 0.298039 0 0 0 0 0.32549 0 0 0 0 0.462745 0 0 0 0.17 0"/>
<feBlend mode="normal" in2="effect1_dropShadow_504_3" result="effect2_dropShadow_504_3"/>
<feBlend mode="normal" in="SourceGraphic" in2="effect2_dropShadow_504_3" result="shape"/>
<feColorMatrix in="SourceAlpha" type="matrix" values="0 0 0 0 0 0 0 0 0 0 0 0 0 0 0 0 0 0 127 0" result="hardAlpha"/>
<feOffset dx="2" dy="2"/>
<feGaussianBlur stdDeviation="1"/>
<feComposite in2="hardAlpha" operator="arithmetic" k2="-1" k3="1"/>
<feColorMatrix type="matrix" values="0 0 0 0 0.324479 0 0 0 0 0.360489 0 0 0 0 0.533333 0 0 0 0.11 0"/>
<feBlend mode="screen" in2="shape" result="effect3_innerShadow_504_3"/>
<feColorMatrix in="SourceAlpha" type="matrix" values="0 0 0 0 0 0 0 0 0 0 0 0 0 0 0 0 0 0 127 0" result="hardAlpha"/>
<feOffset dx="-1" dy="-1"/>
<feGaussianBlur stdDeviation="2"/>
<feComposite in2="hardAlpha" operator="arithmetic" k2="-1" k3="1"/>
<feColorMatrix type="matrix" values="0 0 0 0 0.172549 0 0 0 0 0.188235 0 0 0 0 0.266667 0 0 0 0.2 0"/>
<feBlend mode="multiply" in2="effect3_innerShadow_504_3" result="effect4_innerShadow_504_3"/>
</filter>
<filter id="filter3_ddii_504_3" x="902.547" y="492.21" width="632.906" height="610.58" filterUnits="userSpaceOnUse" color-interpolation-filters="sRGB">
<feFlood flood-opacity="0" result="BackgroundImageFix"/>
<feColorMatrix in="SourceAlpha" type="matrix" values="0 0 0 0 0 0 0 0 0 0 0 0 0 0 0 0 0 0 127 0" result="hardAlpha"/>
<feOffset dx="34" dy="34"/>
<feGaussianBlur stdDeviation="32"/>
<feColorMatrix type="matrix" values="0 0 0 0 0.196078 0 0 0 0 0.211765 0 0 0 0 0.301961 0 0 0 0.48 0"/>
<feBlend mode="multiply" in2="BackgroundImageFix" result="effect1_dropShadow_504_3"/>
<feColorMatrix in="SourceAlpha" type="matrix" values="0 0 0 0 0 0 0 0 0 0 0 0 0 0 0 0 0 0 127 0" result="hardAlpha"/>
<feOffset dx="-32" dy="-32"/>
<feGaussianBlur stdDeviation="24"/>
<feColorMatrix type="matrix" values="0 0 0 0 0.298039 0 0 0 0 0.32549 0 0 0 0 0.462745 0 0 0 0.17 0"/>
<feBlend mode="normal" in2="effect1_dropShadow_504_3" result="effect2_dropShadow_504_3"/>
<feBlend mode="normal" in="SourceGraphic" in2="effect2_dropShadow_504_3" result="shape"/>
<feColorMatrix in="SourceAlpha" type="matrix" values="0 0 0 0 0 0 0 0 0 0 0 0 0 0 0 0 0 0 127 0" result="hardAlpha"/>
<feOffset dx="2" dy="2"/>
<feGaussianBlur stdDeviation="1"/>
<feComposite in2="hardAlpha" operator="arithmetic" k2="-1" k3="1"/>
<feColorMatrix type="matrix" values="0 0 0 0 0.324479 0 0 0 0 0.360489 0 0 0 0 0.533333 0 0 0 0.11 0"/>
<feBlend mode="screen" in2="shape" result="effect3_innerShadow_504_3"/>
<feColorMatrix in="SourceAlpha" type="matrix" values="0 0 0 0 0 0 0 0 0 0 0 0 0 0 0 0 0 0 127 0" result="hardAlpha"/>
<feOffset dx="-1" dy="-1"/>
<feGaussianBlur stdDeviation="2"/>
<feComposite in2="hardAlpha" operator="arithmetic" k2="-1" k3="1"/>
<feColorMatrix type="matrix" values="0 0 0 0 0.172549 0 0 0 0 0.188235 0 0 0 0 0.266667 0 0 0 0.2 0"/>
<feBlend mode="multiply" in2="effect3_innerShadow_504_3" result="effect4_innerShadow_504_3"/>
</filter>
<radialGradient id="paint0_radial_504_3" cx="0" cy="0" r="1" gradientUnits="userSpaceOnUse" gradientTransform="rotate(45) scale(592.555 882.179)">
<stop offset="0.0503676" stop-color="#1E242C"/>
<stop offset="0.825281" stop-color="#1E242C"/>
</radialGradient>
<linearGradient id="paint1_linear_504_3" x1="0" y1="0" x2="313.054" y2="316.609" gradientUnits="userSpaceOnUse">
<stop stop-color="#5D658E" stop-opacity="0.48"/>
<stop offset="0.909911" stop-color="#23273E" stop-opacity="0"/>
</linearGradient>
<radialGradient id="paint2_radial_504_3" cx="0" cy="0" r="1" gradientUnits="userSpaceOnUse" gradientTransform="rotate(45) scale(592.555 882.179)">
<stop offset="0.0503676" stop-color="#DF1A1A"/>
<stop offset="0.825281" stop-color="#371510"/>
</radialGradient>
<linearGradient id="paint3_linear_504_3" x1="0" y1="0" x2="313.054" y2="316.609" gradientUnits="userSpaceOnUse">
<stop stop-color="#5D658E" stop-opacity="0.48"/>
<stop offset="0.909911" stop-color="#23273E" stop-opacity="0"/>
</linearGradient>
<linearGradient id="paint4_linear_504_3" x1="1757" y1="-907" x2="1757" y2="897" gradientUnits="userSpaceOnUse">
<stop stop-color="#0085A5"/>
<stop offset="1" stop-color="#050E18"/>
<stop offset="1" stop-color="#050E18"/>
</linearGradient>
<linearGradient id="paint5_linear_504_3" x1="1811.81" y1="47" x2="1811.81" y2="136.813" gradientUnits="userSpaceOnUse">
<stop stop-color="#023D4B"/>
<stop offset="1" stop-color="#2F423E" stop-opacity="0"/>
</linearGradient>
<linearGradient id="paint6_linear_504_3" x1="1502.81" y1="3" x2="1502.81" y2="92.8128" gradientUnits="userSpaceOnUse">
<stop stop-color="#023D4B"/>
<stop offset="1" stop-color="#2F423E" stop-opacity="0"/>
</linearGradient>
<linearGradient id="paint7_linear_504_3" x1="1825.81" y1="299" x2="1825.81" y2="388.813" gradientUnits="userSpaceOnUse">
<stop stop-color="#023D4B"/>
<stop offset="1" stop-color="#2F423E" stop-opacity="0"/>
</linearGradient>
<linearGradient id="paint8_linear_504_3" x1="701" y1="320" x2="1053.48" y2="776.47" gradientUnits="userSpaceOnUse">
<stop stop-color="#008EAF" stop-opacity="0.48"/>
<stop offset="0.909911" stop-color="#023D4B" stop-opacity="0"/>
</linearGradient>
<linearGradient id="paint9_linear_504_3" x1="960" y1="554" x2="1312.48" y2="1010.47" gradientUnits="userSpaceOnUse">
<stop stop-color="#008EAF" stop-opacity="0.48"/>
<stop offset="0.909911" stop-color="#023D4B" stop-opacity="0"/>
</linearGradient>
</defs>
</svg>
