<svg width="1217" height="745" viewBox="0 0 1217 745" fill="none" xmlns="http://www.w3.org/2000/svg">
<rect width="1217" height="530" rx="112" fill="#EEF0F0"/>
<g filter="url(#filter0_d_1030_4)">
<rect x="302" y="207" width="327" height="440" rx="69" fill="white"/>
</g>
<path d="M147.432 374.182H131.784L114.568 384.886V399.477L130.182 389.932H130.591V444H147.432V374.182ZM166.415 444.989C171.086 444.989 175.211 441.034 175.279 436.125C175.211 431.284 171.086 427.364 166.415 427.364C161.506 427.364 157.484 431.284 157.552 436.125C157.484 441.034 161.506 444.989 166.415 444.989Z" fill="#CED2D6"/>
<path d="M774.705 444.955C791.068 444.955 802.693 436.295 802.659 424.159C802.693 415.568 797.068 409.432 786.295 408.17V407.625C794.375 406.466 800.102 401.045 800.068 393.205C800.102 381.818 789.807 373.227 774.841 373.227C759.773 373.227 748.795 381.955 748.659 394.364H764.784C764.92 389.591 769.216 386.386 774.841 386.386C780.193 386.386 783.841 389.625 783.807 394.295C783.841 399.136 779.545 402.477 773.341 402.477H766.557V414.477H773.341C780.398 414.477 785 417.955 784.932 422.864C785 427.807 780.773 431.25 774.773 431.25C768.807 431.25 764.409 428.08 764.239 423.477H747.261C747.398 436.091 758.75 444.955 774.705 444.955ZM817.322 444.989C821.992 444.989 826.117 441.034 826.185 436.125C826.117 431.284 821.992 427.364 817.322 427.364C812.412 427.364 808.39 431.284 808.458 436.125C808.39 441.034 812.412 444.989 817.322 444.989Z" fill="#CED2D6"/>
<path d="M442.148 444H493.83V430.398H465.534V429.955L473.886 422.25C489.023 409.057 492.977 402.341 492.977 394.33C492.977 381.75 482.716 373.227 466.864 373.227C451.42 373.227 441.091 382.125 441.125 396.341H457.114C457.114 390.034 461 386.386 466.795 386.386C472.489 386.386 476.614 389.898 476.614 395.659C476.614 400.875 473.341 404.42 467.614 409.568L442.148 431.864V444ZM510.478 444.989C515.148 444.989 519.273 441.034 519.341 436.125C519.273 431.284 515.148 427.364 510.478 427.364C505.569 427.364 501.546 431.284 501.614 436.125C501.546 441.034 505.569 444.989 510.478 444.989Z" fill="#CED2D6"/>
<path d="M1052.3 432.409H1086.01V444H1102.14V432.409H1110.49V419.114H1102.14V374.182H1080.9L1052.3 419.25V432.409ZM1086.35 419.114H1069.07V418.568L1085.81 392.045H1086.35V419.114ZM1125.79 444.989C1130.46 444.989 1134.59 441.034 1134.65 436.125C1134.59 431.284 1130.46 427.364 1125.79 427.364C1120.88 427.364 1116.86 431.284 1116.93 436.125C1116.86 441.034 1120.88 444.989 1125.79 444.989Z" fill="#CED2D6"/>
<path d="M120.585 307H125.315C128.409 307 129.688 305.491 129.688 303.523C129.688 301.452 128.256 300.327 127.054 300.25V300.122C128.179 299.815 129.176 299.074 129.176 297.386C129.176 295.469 127.898 293.909 125.162 293.909H120.585V307ZM122.17 305.594V301.043H125.392C127.105 301.043 128.179 302.193 128.179 303.523C128.179 304.673 127.386 305.594 125.315 305.594H122.17ZM122.17 299.662V295.315H125.162C126.901 295.315 127.668 296.236 127.668 297.386C127.668 298.767 126.543 299.662 125.111 299.662H122.17ZM132.088 307H133.596V300.787C133.596 299.457 134.645 298.486 136.076 298.486C136.479 298.486 136.895 298.562 136.997 298.588V297.054C136.824 297.041 136.428 297.028 136.204 297.028C135.028 297.028 134.005 297.693 133.647 298.665H133.545V297.182H132.088V307ZM142.475 307.205C145.134 307.205 146.924 305.185 146.924 302.142C146.924 299.074 145.134 297.054 142.475 297.054C139.816 297.054 138.026 299.074 138.026 302.142C138.026 305.185 139.816 307.205 142.475 307.205ZM142.475 305.849C140.455 305.849 139.534 304.111 139.534 302.142C139.534 300.173 140.455 298.409 142.475 298.409C144.495 298.409 145.415 300.173 145.415 302.142C145.415 304.111 144.495 305.849 142.475 305.849ZM151.117 307H152.6L154.748 299.457H154.901L157.049 307H158.532L161.523 297.182H159.938L157.816 304.673H157.713L155.642 297.182H154.032L151.935 304.699H151.833L149.711 297.182H148.125L151.117 307ZM170.472 299.381C169.999 297.987 168.938 297.054 166.995 297.054C164.924 297.054 163.39 298.23 163.39 299.892C163.39 301.247 164.195 302.155 165.998 302.577L167.634 302.96C168.625 303.19 169.091 303.663 169.091 304.341C169.091 305.185 168.196 305.875 166.79 305.875C165.556 305.875 164.783 305.344 164.515 304.29L163.083 304.648C163.434 306.316 164.809 307.205 166.816 307.205C169.098 307.205 170.651 305.958 170.651 304.264C170.651 302.896 169.794 302.033 168.043 301.605L166.586 301.247C165.422 300.96 164.898 300.57 164.898 299.815C164.898 298.972 165.793 298.358 166.995 298.358C168.311 298.358 168.855 299.087 169.117 299.764L170.472 299.381ZM177.038 307.205C179.032 307.205 180.49 306.207 180.95 304.724L179.493 304.315C179.109 305.338 178.221 305.849 177.038 305.849C175.268 305.849 174.047 304.705 173.976 302.602H181.104V301.963C181.104 298.307 178.93 297.054 176.885 297.054C174.226 297.054 172.461 299.151 172.461 302.168C172.461 305.185 174.2 307.205 177.038 307.205ZM173.976 301.298C174.079 299.771 175.159 298.409 176.885 298.409C178.521 298.409 179.569 299.636 179.569 301.298H173.976ZM192.731 297.182H190.634V294.83H189.126V297.182H187.643V298.46H189.126V304.597C189.126 306.31 190.506 307.128 191.785 307.128C192.347 307.128 192.705 307.026 192.91 306.949L192.603 305.594C192.475 305.619 192.27 305.67 191.938 305.67C191.273 305.67 190.634 305.466 190.634 304.188V298.46H192.731V297.182ZM196.719 301.094C196.719 299.381 197.812 298.409 199.302 298.409C200.721 298.409 201.577 299.304 201.577 300.864V307H203.086V300.761C203.086 298.237 201.743 297.054 199.736 297.054C198.189 297.054 197.307 297.7 196.847 298.716H196.719V293.909H195.211V307H196.719V301.094ZM205.846 307H207.354V300.787C207.354 299.457 208.402 298.486 209.834 298.486C210.237 298.486 210.652 298.562 210.755 298.588V297.054C210.582 297.041 210.186 297.028 209.962 297.028C208.786 297.028 207.763 297.693 207.405 298.665H207.303V297.182H205.846V307ZM216.233 307.205C218.892 307.205 220.681 305.185 220.681 302.142C220.681 299.074 218.892 297.054 216.233 297.054C213.574 297.054 211.784 299.074 211.784 302.142C211.784 305.185 213.574 307.205 216.233 307.205ZM216.233 305.849C214.213 305.849 213.292 304.111 213.292 302.142C213.292 300.173 214.213 298.409 216.233 298.409C218.252 298.409 219.173 300.173 219.173 302.142C219.173 304.111 218.252 305.849 216.233 305.849ZM229.172 302.986C229.172 304.827 227.765 305.67 226.64 305.67C225.388 305.67 224.493 304.75 224.493 303.318V297.182H222.984V303.42C222.984 305.926 224.314 307.128 226.155 307.128C227.638 307.128 228.609 306.335 229.069 305.338H229.172V307H230.68V297.182H229.172V302.986ZM237.406 310.886C239.759 310.886 241.651 309.812 241.651 307.281V297.182H240.193V298.741H240.04C239.707 298.23 239.094 297.054 237.176 297.054C234.696 297.054 232.983 299.023 232.983 302.04C232.983 305.108 234.773 306.847 237.151 306.847C239.068 306.847 239.682 305.722 240.014 305.185H240.142V307.179C240.142 308.815 238.991 309.557 237.406 309.557C235.623 309.557 234.996 308.617 234.594 308.074L233.392 308.918C234.006 309.947 235.214 310.886 237.406 310.886ZM237.355 305.491C235.463 305.491 234.491 304.06 234.491 302.014C234.491 300.02 235.438 298.409 237.355 298.409C239.196 298.409 240.168 299.892 240.168 302.014C240.168 304.188 239.17 305.491 237.355 305.491ZM245.92 301.094C245.92 299.381 247.013 298.409 248.503 298.409C249.922 298.409 250.778 299.304 250.778 300.864V307H252.287V300.761C252.287 298.237 250.945 297.054 248.938 297.054C247.391 297.054 246.509 297.7 246.048 298.716H245.92V293.909H244.412V307H245.92V301.094ZM130.966 315.909H129.406V326.213H129.278L122.119 315.909H120.585V329H122.17V318.722H122.298L129.432 329H130.966V315.909ZM138.05 329.205C140.044 329.205 141.502 328.207 141.962 326.724L140.504 326.315C140.121 327.338 139.232 327.849 138.05 327.849C136.279 327.849 135.058 326.705 134.988 324.602H142.115V323.963C142.115 320.307 139.942 319.054 137.896 319.054C135.237 319.054 133.473 321.151 133.473 324.168C133.473 327.185 135.212 329.205 138.05 329.205ZM134.988 323.298C135.09 321.771 136.171 320.409 137.896 320.409C139.533 320.409 140.581 321.636 140.581 323.298H134.988ZM146.634 329H148.117L150.265 321.457H150.419L152.566 329H154.049L157.041 319.182H155.455L153.333 326.673H153.231L151.16 319.182H149.549L147.453 326.699H147.35L145.228 319.182H143.643L146.634 329ZM163.663 315.295H162.282L158.063 330.969H159.444L163.663 315.295ZM165.656 329H173.658V327.594H167.241V323.145H173.147V321.739H167.241V317.315H173.556V315.909H165.656V329ZM177.334 319.182H175.595L178.714 324.091L175.595 329H177.334L179.686 325.19L182.038 329H183.777L180.607 324.091L183.777 319.182H182.038L179.686 323.196L177.334 319.182ZM185.93 329H187.438V319.182H185.93V329ZM186.697 317.545C187.285 317.545 187.77 317.085 187.77 316.523C187.77 315.96 187.285 315.5 186.697 315.5C186.108 315.5 185.623 315.96 185.623 316.523C185.623 317.085 186.108 317.545 186.697 317.545ZM197.156 321.381C196.683 319.987 195.621 319.054 193.678 319.054C191.607 319.054 190.073 320.23 190.073 321.892C190.073 323.247 190.879 324.155 192.681 324.577L194.317 324.96C195.308 325.19 195.775 325.663 195.775 326.341C195.775 327.185 194.88 327.875 193.474 327.875C192.24 327.875 191.467 327.344 191.198 326.29L189.766 326.648C190.118 328.316 191.492 329.205 193.499 329.205C195.781 329.205 197.335 327.958 197.335 326.264C197.335 324.896 196.478 324.033 194.727 323.605L193.269 323.247C192.106 322.96 191.582 322.57 191.582 321.815C191.582 320.972 192.477 320.358 193.678 320.358C194.995 320.358 195.538 321.087 195.8 321.764L197.156 321.381ZM203.875 319.182H201.779V316.83H200.27V319.182H198.787V320.46H200.27V326.597C200.27 328.31 201.651 329.128 202.929 329.128C203.492 329.128 203.85 329.026 204.054 328.949L203.747 327.594C203.619 327.619 203.415 327.67 203.083 327.67C202.418 327.67 201.779 327.466 201.779 326.188V320.46H203.875V319.182ZM206.144 329H207.653V319.182H206.144V329ZM206.911 317.545C207.499 317.545 207.985 317.085 207.985 316.523C207.985 315.96 207.499 315.5 206.911 315.5C206.323 315.5 205.838 315.96 205.838 316.523C205.838 317.085 206.323 317.545 206.911 317.545ZM211.924 323.094C211.924 321.381 212.985 320.409 214.43 320.409C215.83 320.409 216.68 321.323 216.68 322.864V329H218.189V322.761C218.189 320.256 216.853 319.054 214.865 319.054C213.382 319.054 212.461 319.719 212.001 320.716H211.873V319.182H210.416V329H211.924V323.094ZM224.908 332.886C227.26 332.886 229.153 331.812 229.153 329.281V319.182H227.695V320.741H227.542C227.209 320.23 226.596 319.054 224.678 319.054C222.198 319.054 220.485 321.023 220.485 324.04C220.485 327.108 222.275 328.847 224.653 328.847C226.57 328.847 227.184 327.722 227.516 327.185H227.644V329.179C227.644 330.815 226.493 331.557 224.908 331.557C223.125 331.557 222.498 330.617 222.096 330.074L220.894 330.918C221.508 331.947 222.716 332.886 224.908 332.886ZM224.857 327.491C222.965 327.491 221.993 326.06 221.993 324.014C221.993 322.02 222.939 320.409 224.857 320.409C226.698 320.409 227.67 321.892 227.67 324.014C227.67 326.188 226.672 327.491 224.857 327.491ZM120.585 351H125.315C128.409 351 129.688 349.491 129.688 347.523C129.688 345.452 128.256 344.327 127.054 344.25V344.122C128.179 343.815 129.176 343.074 129.176 341.386C129.176 339.469 127.898 337.909 125.162 337.909H120.585V351ZM122.17 349.594V345.043H125.392C127.105 345.043 128.179 346.193 128.179 347.523C128.179 348.673 127.386 349.594 125.315 349.594H122.17ZM122.17 343.662V339.315H125.162C126.901 339.315 127.668 340.236 127.668 341.386C127.668 342.767 126.543 343.662 125.111 343.662H122.17ZM138.275 346.986C138.275 348.827 136.869 349.67 135.744 349.67C134.491 349.67 133.596 348.75 133.596 347.318V341.182H132.088V347.42C132.088 349.926 133.417 351.128 135.258 351.128C136.741 351.128 137.713 350.335 138.173 349.338H138.275V351H139.784V341.182H138.275V346.986ZM149.501 343.381C149.028 341.987 147.967 341.054 146.024 341.054C143.953 341.054 142.419 342.23 142.419 343.892C142.419 345.247 143.224 346.155 145.027 346.577L146.663 346.96C147.654 347.19 148.121 347.663 148.121 348.341C148.121 349.185 147.226 349.875 145.819 349.875C144.586 349.875 143.812 349.344 143.544 348.29L142.112 348.648C142.464 350.316 143.838 351.205 145.845 351.205C148.127 351.205 149.68 349.958 149.68 348.264C149.68 346.896 148.824 346.033 147.072 345.605L145.615 345.247C144.452 344.96 143.927 344.57 143.927 343.815C143.927 342.972 144.822 342.358 146.024 342.358C147.341 342.358 147.884 343.087 148.146 343.764L149.501 343.381ZM151.951 351H153.46V341.182H151.951V351ZM152.718 339.545C153.306 339.545 153.792 339.085 153.792 338.523C153.792 337.96 153.306 337.5 152.718 337.5C152.13 337.5 151.644 337.96 151.644 338.523C151.644 339.085 152.13 339.545 152.718 339.545ZM157.731 345.094C157.731 343.381 158.792 342.409 160.237 342.409C161.637 342.409 162.487 343.323 162.487 344.864V351H163.995V344.761C163.995 342.256 162.659 341.054 160.671 341.054C159.188 341.054 158.268 341.719 157.808 342.716H157.68V341.182H156.222V351H157.731V345.094ZM170.868 351.205C172.863 351.205 174.32 350.207 174.78 348.724L173.323 348.315C172.939 349.338 172.051 349.849 170.868 349.849C169.098 349.849 167.877 348.705 167.806 346.602H174.934V345.963C174.934 342.307 172.76 341.054 170.715 341.054C168.056 341.054 166.292 343.151 166.292 346.168C166.292 349.185 168.03 351.205 170.868 351.205ZM167.806 345.298C167.909 343.771 168.989 342.409 170.715 342.409C172.351 342.409 173.4 343.636 173.4 345.298H167.806ZM184.183 343.381C183.71 341.987 182.649 341.054 180.706 341.054C178.635 341.054 177.1 342.23 177.1 343.892C177.1 345.247 177.906 346.155 179.708 346.577L181.345 346.96C182.336 347.19 182.802 347.663 182.802 348.341C182.802 349.185 181.907 349.875 180.501 349.875C179.267 349.875 178.494 349.344 178.225 348.29L176.794 348.648C177.145 350.316 178.52 351.205 180.527 351.205C182.809 351.205 184.362 349.958 184.362 348.264C184.362 346.896 183.505 346.033 181.754 345.605L180.297 345.247C179.133 344.96 178.609 344.57 178.609 343.815C178.609 342.972 179.504 342.358 180.706 342.358C182.022 342.358 182.566 343.087 182.828 343.764L184.183 343.381ZM193.587 343.381C193.114 341.987 192.053 341.054 190.11 341.054C188.039 341.054 186.505 342.23 186.505 343.892C186.505 345.247 187.31 346.155 189.113 346.577L190.749 346.96C191.74 347.19 192.206 347.663 192.206 348.341C192.206 349.185 191.312 349.875 189.905 349.875C188.672 349.875 187.898 349.344 187.63 348.29L186.198 348.648C186.55 350.316 187.924 351.205 189.931 351.205C192.213 351.205 193.766 349.958 193.766 348.264C193.766 346.896 192.91 346.033 191.158 345.605L189.701 345.247C188.537 344.96 188.013 344.57 188.013 343.815C188.013 342.972 188.908 342.358 190.11 342.358C191.427 342.358 191.97 343.087 192.232 343.764L193.587 343.381ZM200.153 351.205C202.148 351.205 203.605 350.207 204.065 348.724L202.608 348.315C202.224 349.338 201.336 349.849 200.153 349.849C198.383 349.849 197.162 348.705 197.092 346.602H204.219V345.963C204.219 342.307 202.045 341.054 200 341.054C197.341 341.054 195.577 343.151 195.577 346.168C195.577 349.185 197.315 351.205 200.153 351.205ZM197.092 345.298C197.194 343.771 198.274 342.409 200 342.409C201.636 342.409 202.685 343.636 202.685 345.298H197.092ZM213.468 343.381C212.995 341.987 211.934 341.054 209.991 341.054C207.92 341.054 206.386 342.23 206.386 343.892C206.386 345.247 207.191 346.155 208.994 346.577L210.63 346.96C211.621 347.19 212.087 347.663 212.087 348.341C212.087 349.185 211.192 349.875 209.786 349.875C208.553 349.875 207.779 349.344 207.511 348.29L206.079 348.648C206.43 350.316 207.805 351.205 209.812 351.205C212.094 351.205 213.647 349.958 213.647 348.264C213.647 346.896 212.79 346.033 211.039 345.605L209.582 345.247C208.418 344.96 207.894 344.57 207.894 343.815C207.894 342.972 208.789 342.358 209.991 342.358C211.308 342.358 211.851 343.087 212.113 343.764L213.468 343.381Z" fill="#180505"/>
<path d="M404.636 346.881V347.304C404.636 354.926 399.541 361.701 391.897 363.394C381.706 365.512 372.789 357.89 372.789 347.728V346.881H404.636Z" fill="#043D4A"/>
<path d="M417.375 309.619C417.375 318.088 411.431 327.827 408.883 331.214C408.458 331.637 408.458 332.061 408.034 332.908L405.91 338.836C405.486 339.683 405.061 340.106 403.787 340.106H372.789C371.94 340.106 371.091 339.683 370.666 338.836L368.543 332.908C368.543 332.484 368.118 332.061 367.694 331.214C365.57 327.827 360.05 318.088 359.625 309.619C359.625 301.997 362.173 294.799 367.694 289.718C373.214 284.214 380.432 281.25 388.5 281.25C396.569 281.25 403.787 284.637 409.307 289.718C414.403 295.223 417.375 301.997 417.375 309.619Z" fill="#043D4A"/>
<path d="M442.585 307H444.17V302.219H447.034C450.083 302.219 451.457 300.365 451.457 298.051C451.457 295.737 450.083 293.909 447.009 293.909H442.585V307ZM444.17 300.812V295.315H446.957C449.086 295.315 449.898 296.479 449.898 298.051C449.898 299.624 449.086 300.812 446.983 300.812H444.17ZM453.806 307H455.315V297.182H453.806V307ZM454.574 295.545C455.162 295.545 455.647 295.085 455.647 294.523C455.647 293.96 455.162 293.5 454.574 293.5C453.985 293.5 453.5 293.96 453.5 294.523C453.5 295.085 453.985 295.545 454.574 295.545ZM462.067 307.205C464.24 307.205 465.672 305.875 465.927 304.136H464.419C464.138 305.21 463.243 305.849 462.067 305.849C460.277 305.849 459.126 304.366 459.126 302.091C459.126 299.866 460.302 298.409 462.067 298.409C463.396 298.409 464.189 299.227 464.419 300.122H465.927C465.672 298.281 464.112 297.054 462.041 297.054C459.382 297.054 457.618 299.151 457.618 302.142C457.618 305.082 459.305 307.205 462.067 307.205ZM468.133 307H469.641V303.325L470.696 302.347L474.371 307H476.289L471.834 301.375L475.982 297.182H474.116L469.82 301.554H469.641V293.909H468.133V307ZM485.875 307.23C487.588 307.23 488.483 306.31 488.79 305.67H488.867V307H490.375V300.531C490.375 297.412 487.998 297.054 486.745 297.054C485.262 297.054 483.574 297.565 482.807 299.355L484.239 299.866C484.571 299.151 485.358 298.384 486.796 298.384C488.183 298.384 488.867 299.119 488.867 300.378V300.429C488.867 301.158 488.125 301.094 486.336 301.324C484.514 301.56 482.526 301.963 482.526 304.213C482.526 306.131 484.009 307.23 485.875 307.23ZM486.105 305.875C484.904 305.875 484.034 305.338 484.034 304.29C484.034 303.139 485.083 302.781 486.259 302.628C486.898 302.551 488.611 302.372 488.867 302.065V303.446C488.867 304.673 487.895 305.875 486.105 305.875ZM498.396 307H503.126C506.22 307 507.498 305.491 507.498 303.523C507.498 301.452 506.066 300.327 504.865 300.25V300.122C505.99 299.815 506.987 299.074 506.987 297.386C506.987 295.469 505.708 293.909 502.972 293.909H498.396V307ZM499.981 305.594V301.043H503.203C504.916 301.043 505.99 302.193 505.99 303.523C505.99 304.673 505.197 305.594 503.126 305.594H499.981ZM499.981 299.662V295.315H502.972C504.711 295.315 505.478 296.236 505.478 297.386C505.478 298.767 504.353 299.662 502.921 299.662H499.981ZM516.086 302.986C516.086 304.827 514.68 305.67 513.555 305.67C512.302 305.67 511.407 304.75 511.407 303.318V297.182H509.898V303.42C509.898 305.926 511.228 307.128 513.069 307.128C514.552 307.128 515.523 306.335 515.983 305.338H516.086V307H517.594V297.182H516.086V302.986ZM527.312 299.381C526.839 297.987 525.778 297.054 523.835 297.054C521.763 297.054 520.229 298.23 520.229 299.892C520.229 301.247 521.035 302.155 522.837 302.577L524.474 302.96C525.464 303.19 525.931 303.663 525.931 304.341C525.931 305.185 525.036 305.875 523.63 305.875C522.396 305.875 521.623 305.344 521.354 304.29L519.923 304.648C520.274 306.316 521.648 307.205 523.656 307.205C525.938 307.205 527.491 305.958 527.491 304.264C527.491 302.896 526.634 302.033 524.883 301.605L523.425 301.247C522.262 300.96 521.738 300.57 521.738 299.815C521.738 298.972 522.633 298.358 523.835 298.358C525.151 298.358 525.695 299.087 525.957 299.764L527.312 299.381ZM529.762 307H531.27V297.182H529.762V307ZM530.529 295.545C531.117 295.545 531.602 295.085 531.602 294.523C531.602 293.96 531.117 293.5 530.529 293.5C529.941 293.5 529.455 293.96 529.455 294.523C529.455 295.085 529.941 295.545 530.529 295.545ZM535.542 301.094C535.542 299.381 536.603 298.409 538.047 298.409C539.447 298.409 540.297 299.323 540.297 300.864V307H541.806V300.761C541.806 298.256 540.47 297.054 538.482 297.054C536.999 297.054 536.078 297.719 535.618 298.716H535.49V297.182H534.033V307H535.542V301.094ZM548.679 307.205C550.673 307.205 552.131 306.207 552.591 304.724L551.133 304.315C550.75 305.338 549.861 305.849 548.679 305.849C546.908 305.849 545.687 304.705 545.617 302.602H552.744V301.963C552.744 298.307 550.571 297.054 548.525 297.054C545.866 297.054 544.102 299.151 544.102 302.168C544.102 305.185 545.841 307.205 548.679 307.205ZM545.617 301.298C545.719 299.771 546.8 298.409 548.525 298.409C550.162 298.409 551.21 299.636 551.21 301.298H545.617ZM561.993 299.381C561.52 297.987 560.459 297.054 558.516 297.054C556.445 297.054 554.911 298.23 554.911 299.892C554.911 301.247 555.716 302.155 557.519 302.577L559.155 302.96C560.146 303.19 560.613 303.663 560.613 304.341C560.613 305.185 559.718 305.875 558.312 305.875C557.078 305.875 556.305 305.344 556.036 304.29L554.604 304.648C554.956 306.316 556.33 307.205 558.337 307.205C560.619 307.205 562.172 305.958 562.172 304.264C562.172 302.896 561.316 302.033 559.564 301.605L558.107 301.247C556.944 300.96 556.42 300.57 556.42 299.815C556.42 298.972 557.314 298.358 558.516 298.358C559.833 298.358 560.376 299.087 560.638 299.764L561.993 299.381ZM571.398 299.381C570.925 297.987 569.864 297.054 567.92 297.054C565.849 297.054 564.315 298.23 564.315 299.892C564.315 301.247 565.121 302.155 566.923 302.577L568.56 302.96C569.55 303.19 570.017 303.663 570.017 304.341C570.017 305.185 569.122 305.875 567.716 305.875C566.482 305.875 565.709 305.344 565.44 304.29L564.009 304.648C564.36 306.316 565.734 307.205 567.741 307.205C570.023 307.205 571.577 305.958 571.577 304.264C571.577 302.896 570.72 302.033 568.969 301.605L567.511 301.247C566.348 300.96 565.824 300.57 565.824 299.815C565.824 298.972 566.719 298.358 567.92 298.358C569.237 298.358 569.781 299.087 570.043 299.764L571.398 299.381ZM578.475 293.295H577.095L572.876 308.969H574.257L578.475 293.295ZM444.17 315.909H442.585V329H444.17V315.909ZM450.852 329.205C452.744 329.205 453.383 328.028 453.715 327.491H453.894V329H455.352V315.909H453.843V320.741H453.715C453.383 320.23 452.795 319.054 450.877 319.054C448.397 319.054 446.684 321.023 446.684 324.116C446.684 327.236 448.397 329.205 450.852 329.205ZM451.056 327.849C449.164 327.849 448.193 326.188 448.193 324.091C448.193 322.02 449.139 320.409 451.056 320.409C452.897 320.409 453.869 321.892 453.869 324.091C453.869 326.315 452.872 327.849 451.056 327.849ZM462.441 329.205C464.435 329.205 465.892 328.207 466.352 326.724L464.895 326.315C464.512 327.338 463.623 327.849 462.441 327.849C460.67 327.849 459.449 326.705 459.379 324.602H466.506V323.963C466.506 320.307 464.333 319.054 462.287 319.054C459.628 319.054 457.864 321.151 457.864 324.168C457.864 327.185 459.602 329.205 462.441 329.205ZM459.379 323.298C459.481 321.771 460.561 320.409 462.287 320.409C463.923 320.409 464.972 321.636 464.972 323.298H459.379ZM471.69 329.23C473.403 329.23 474.298 328.31 474.605 327.67H474.681V329H476.19V322.531C476.19 319.412 473.812 319.054 472.559 319.054C471.076 319.054 469.389 319.565 468.622 321.355L470.053 321.866C470.386 321.151 471.172 320.384 472.61 320.384C473.997 320.384 474.681 321.119 474.681 322.378V322.429C474.681 323.158 473.94 323.094 472.15 323.324C470.328 323.56 468.34 323.963 468.34 326.213C468.34 328.131 469.823 329.23 471.69 329.23ZM471.92 327.875C470.718 327.875 469.849 327.338 469.849 326.29C469.849 325.139 470.897 324.781 472.073 324.628C472.713 324.551 474.426 324.372 474.681 324.065V325.446C474.681 326.673 473.71 327.875 471.92 327.875ZM488.276 319.182H486.179V316.83H484.67V319.182H483.188V320.46H484.67V326.597C484.67 328.31 486.051 329.128 487.33 329.128C487.892 329.128 488.25 329.026 488.455 328.949L488.148 327.594C488.02 327.619 487.815 327.67 487.483 327.67C486.818 327.67 486.179 327.466 486.179 326.188V320.46H488.276V319.182ZM492.264 323.094C492.264 321.381 493.357 320.409 494.847 320.409C496.266 320.409 497.122 321.304 497.122 322.864V329H498.631V322.761C498.631 320.237 497.288 319.054 495.281 319.054C493.734 319.054 492.852 319.7 492.392 320.716H492.264V315.909H490.756V329H492.264V323.094ZM504.28 329.23C505.993 329.23 506.888 328.31 507.194 327.67H507.271V329H508.78V322.531C508.78 319.412 506.402 319.054 505.149 319.054C503.666 319.054 501.979 319.565 501.211 321.355L502.643 321.866C502.976 321.151 503.762 320.384 505.2 320.384C506.587 320.384 507.271 321.119 507.271 322.378V322.429C507.271 323.158 506.53 323.094 504.74 323.324C502.918 323.56 500.93 323.963 500.93 326.213C500.93 328.131 502.413 329.23 504.28 329.23ZM504.51 327.875C503.308 327.875 502.439 327.338 502.439 326.29C502.439 325.139 503.487 324.781 504.663 324.628C505.302 324.551 507.015 324.372 507.271 324.065V325.446C507.271 326.673 506.3 327.875 504.51 327.875ZM515.803 319.182H513.706V316.83H512.198V319.182H510.715V320.46H512.198V326.597C512.198 328.31 513.578 329.128 514.857 329.128C515.419 329.128 515.777 329.026 515.982 328.949L515.675 327.594C515.547 327.619 515.343 327.67 515.01 327.67C514.346 327.67 513.706 327.466 513.706 326.188V320.46H515.803V319.182ZM524.643 315.909H523.135V329H524.643V315.909ZM531.395 329.205C534.054 329.205 535.844 327.185 535.844 324.142C535.844 321.074 534.054 319.054 531.395 319.054C528.736 319.054 526.946 321.074 526.946 324.142C526.946 327.185 528.736 329.205 531.395 329.205ZM531.395 327.849C529.375 327.849 528.454 326.111 528.454 324.142C528.454 322.173 529.375 320.409 531.395 320.409C533.415 320.409 534.335 322.173 534.335 324.142C534.335 326.111 533.415 327.849 531.395 327.849ZM542.135 329.205C544.794 329.205 546.584 327.185 546.584 324.142C546.584 321.074 544.794 319.054 542.135 319.054C539.476 319.054 537.686 321.074 537.686 324.142C537.686 327.185 539.476 329.205 542.135 329.205ZM542.135 327.849C540.115 327.849 539.195 326.111 539.195 324.142C539.195 322.173 540.115 320.409 542.135 320.409C544.155 320.409 545.075 322.173 545.075 324.142C545.075 326.111 544.155 327.849 542.135 327.849ZM548.887 329H550.395V325.325L551.45 324.347L555.125 329H557.043L552.588 323.375L556.736 319.182H554.869L550.574 323.554H550.395V315.909H548.887V329ZM565.632 321.381C565.159 319.987 564.098 319.054 562.155 319.054C560.084 319.054 558.55 320.23 558.55 321.892C558.55 323.247 559.355 324.155 561.158 324.577L562.794 324.96C563.785 325.19 564.251 325.663 564.251 326.341C564.251 327.185 563.357 327.875 561.95 327.875C560.717 327.875 559.943 327.344 559.675 326.29L558.243 326.648C558.594 328.316 559.969 329.205 561.976 329.205C564.258 329.205 565.811 327.958 565.811 326.264C565.811 324.896 564.955 324.033 563.203 323.605L561.746 323.247C560.582 322.96 560.058 322.57 560.058 321.815C560.058 320.972 560.953 320.358 562.155 320.358C563.472 320.358 564.015 321.087 564.277 321.764L565.632 321.381ZM442.381 354.682H443.889V349.491H444.017C444.349 350.028 444.989 351.205 446.881 351.205C449.335 351.205 451.048 349.236 451.048 346.116C451.048 343.023 449.335 341.054 446.855 341.054C444.938 341.054 444.349 342.23 444.017 342.741H443.838V341.182H442.381V354.682ZM443.864 346.091C443.864 343.892 444.835 342.409 446.676 342.409C448.594 342.409 449.54 344.02 449.54 346.091C449.54 348.188 448.568 349.849 446.676 349.849C444.861 349.849 443.864 348.315 443.864 346.091ZM453.349 351H454.858V344.787C454.858 343.457 455.906 342.486 457.338 342.486C457.741 342.486 458.156 342.562 458.259 342.588V341.054C458.086 341.041 457.69 341.028 457.466 341.028C456.29 341.028 455.267 341.693 454.909 342.665H454.807V341.182H453.349V351ZM463.737 351.205C466.396 351.205 468.185 349.185 468.185 346.142C468.185 343.074 466.396 341.054 463.737 341.054C461.077 341.054 459.288 343.074 459.288 346.142C459.288 349.185 461.077 351.205 463.737 351.205ZM463.737 349.849C461.717 349.849 460.796 348.111 460.796 346.142C460.796 344.173 461.717 342.409 463.737 342.409C465.756 342.409 466.677 344.173 466.677 346.142C466.677 348.111 465.756 349.849 463.737 349.849ZM470.488 351H471.997V344.864C471.997 343.425 473.045 342.409 474.221 342.409C475.365 342.409 476.164 343.157 476.164 344.276V351H477.698V344.608C477.698 343.342 478.491 342.409 479.872 342.409C480.945 342.409 481.866 342.978 481.866 344.429V351H483.374V344.429C483.374 342.121 482.134 341.054 480.383 341.054C478.977 341.054 477.948 341.7 477.443 342.716H477.34C476.855 341.668 475.998 341.054 474.707 341.054C473.428 341.054 472.482 341.668 472.073 342.716H471.945V341.182H470.488V351ZM486.133 351H487.641V341.182H486.133V351ZM486.9 339.545C487.488 339.545 487.974 339.085 487.974 338.523C487.974 337.96 487.488 337.5 486.9 337.5C486.312 337.5 485.826 337.96 485.826 338.523C485.826 339.085 486.312 339.545 486.9 339.545ZM497.359 343.381C496.886 341.987 495.825 341.054 493.881 341.054C491.81 341.054 490.276 342.23 490.276 343.892C490.276 345.247 491.082 346.155 492.884 346.577L494.521 346.96C495.511 347.19 495.978 347.663 495.978 348.341C495.978 349.185 495.083 349.875 493.677 349.875C492.443 349.875 491.67 349.344 491.401 348.29L489.969 348.648C490.321 350.316 491.695 351.205 493.702 351.205C495.984 351.205 497.538 349.958 497.538 348.264C497.538 346.896 496.681 346.033 494.93 345.605L493.472 345.247C492.309 344.96 491.785 344.57 491.785 343.815C491.785 342.972 492.68 342.358 493.881 342.358C495.198 342.358 495.741 343.087 496.004 343.764L497.359 343.381ZM499.808 351H501.317V341.182H499.808V351ZM500.575 339.545C501.164 339.545 501.649 339.085 501.649 338.523C501.649 337.96 501.164 337.5 500.575 337.5C499.987 337.5 499.502 337.96 499.502 338.523C499.502 339.085 499.987 339.545 500.575 339.545ZM505.588 345.094C505.588 343.381 506.65 342.409 508.094 342.409C509.494 342.409 510.344 343.323 510.344 344.864V351H511.853V344.761C511.853 342.256 510.517 341.054 508.529 341.054C507.046 341.054 506.125 341.719 505.665 342.716H505.537V341.182H504.08V351H505.588V345.094ZM518.572 354.886C520.925 354.886 522.817 353.812 522.817 351.281V341.182H521.359V342.741H521.206C520.873 342.23 520.26 341.054 518.342 341.054C515.862 341.054 514.149 343.023 514.149 346.04C514.149 349.108 515.939 350.847 518.317 350.847C520.234 350.847 520.848 349.722 521.18 349.185H521.308V351.179C521.308 352.815 520.157 353.557 518.572 353.557C516.789 353.557 516.162 352.617 515.76 352.074L514.558 352.918C515.172 353.947 516.38 354.886 518.572 354.886ZM518.521 349.491C516.629 349.491 515.657 348.06 515.657 346.014C515.657 344.02 516.604 342.409 518.521 342.409C520.362 342.409 521.334 343.892 521.334 346.014C521.334 348.188 520.336 349.491 518.521 349.491ZM534.91 341.182H532.814V338.83H531.305V341.182H529.822V342.46H531.305V348.597C531.305 350.31 532.686 351.128 533.964 351.128C534.527 351.128 534.885 351.026 535.089 350.949L534.782 349.594C534.655 349.619 534.45 349.67 534.118 349.67C533.453 349.67 532.814 349.466 532.814 348.188V342.46H534.91V341.182ZM541.063 351.205C543.722 351.205 545.512 349.185 545.512 346.142C545.512 343.074 543.722 341.054 541.063 341.054C538.404 341.054 536.614 343.074 536.614 346.142C536.614 349.185 538.404 351.205 541.063 351.205ZM541.063 349.849C539.043 349.849 538.122 348.111 538.122 346.142C538.122 344.173 539.043 342.409 541.063 342.409C543.083 342.409 544.003 344.173 544.003 346.142C544.003 348.111 543.083 349.849 541.063 349.849ZM553.848 354.682C555.21 354.682 556.169 353.96 556.738 352.432L560.918 341.207L559.269 341.182L556.559 349.006H556.456L553.746 341.182H552.11L555.74 351.051L555.459 351.818C554.909 353.314 554.232 353.455 553.132 353.173L552.749 354.503C552.902 354.58 553.337 354.682 553.848 354.682ZM566.551 351.205C569.21 351.205 571 349.185 571 346.142C571 343.074 569.21 341.054 566.551 341.054C563.892 341.054 562.102 343.074 562.102 346.142C562.102 349.185 563.892 351.205 566.551 351.205ZM566.551 349.849C564.531 349.849 563.611 348.111 563.611 346.142C563.611 344.173 564.531 342.409 566.551 342.409C568.571 342.409 569.491 344.173 569.491 346.142C569.491 348.111 568.571 349.849 566.551 349.849ZM579.49 346.986C579.49 348.827 578.084 349.67 576.959 349.67C575.706 349.67 574.811 348.75 574.811 347.318V341.182H573.303V347.42C573.303 349.926 574.632 351.128 576.473 351.128C577.956 351.128 578.928 350.335 579.388 349.338H579.49V351H580.999V341.182H579.49V346.986Z" fill="#180505"/>
<path d="M1062.74 297.182H1064.28C1064.21 295.207 1062.39 293.73 1059.86 293.73C1057.35 293.73 1055.38 295.188 1055.38 297.386C1055.38 299.151 1056.66 300.199 1058.7 300.787L1060.32 301.247C1061.7 301.631 1062.92 302.116 1062.92 303.42C1062.92 304.852 1061.54 305.798 1059.73 305.798C1058.17 305.798 1056.79 305.108 1056.66 303.625H1055.02C1055.18 305.773 1056.91 307.23 1059.73 307.23C1062.74 307.23 1064.46 305.568 1064.46 303.446C1064.46 300.991 1062.13 300.199 1060.78 299.841L1059.45 299.483C1058.47 299.227 1056.91 298.716 1056.91 297.31C1056.91 296.057 1058.07 295.136 1059.8 295.136C1061.39 295.136 1062.59 295.891 1062.74 297.182ZM1066.86 307H1068.37V297.182H1066.86V307ZM1067.63 295.545C1068.21 295.545 1068.7 295.085 1068.7 294.523C1068.7 293.96 1068.21 293.5 1067.63 293.5C1067.04 293.5 1066.55 293.96 1066.55 294.523C1066.55 295.085 1067.04 295.545 1067.63 295.545ZM1075.4 297.182H1073.3V294.83H1071.8V297.182H1070.31V298.46H1071.8V304.597C1071.8 306.31 1073.18 307.128 1074.45 307.128C1075.02 307.128 1075.38 307.026 1075.58 306.949L1075.27 305.594C1075.14 305.619 1074.94 305.67 1074.61 305.67C1073.94 305.67 1073.3 305.466 1073.3 304.188V298.46H1075.4V297.182ZM1082.94 307H1084.39V305.491H1084.57C1084.91 306.028 1085.54 307.205 1087.44 307.205C1089.89 307.205 1091.6 305.236 1091.6 302.116C1091.6 299.023 1089.89 297.054 1087.41 297.054C1085.49 297.054 1084.91 298.23 1084.57 298.741H1084.45V293.909H1082.94V307ZM1084.42 302.091C1084.42 299.892 1085.39 298.409 1087.23 298.409C1089.15 298.409 1090.1 300.02 1090.1 302.091C1090.1 304.188 1089.12 305.849 1087.23 305.849C1085.42 305.849 1084.42 304.315 1084.42 302.091ZM1096.8 307.23C1098.51 307.23 1099.41 306.31 1099.72 305.67H1099.79V307H1101.3V300.531C1101.3 297.412 1098.92 297.054 1097.67 297.054C1096.19 297.054 1094.5 297.565 1093.73 299.355L1095.16 299.866C1095.5 299.151 1096.28 298.384 1097.72 298.384C1099.11 298.384 1099.79 299.119 1099.79 300.378V300.429C1099.79 301.158 1099.05 301.094 1097.26 301.324C1095.44 301.56 1093.45 301.963 1093.45 304.213C1093.45 306.131 1094.93 307.23 1096.8 307.23ZM1097.03 305.875C1095.83 305.875 1094.96 305.338 1094.96 304.29C1094.96 303.139 1096.01 302.781 1097.18 302.628C1097.82 302.551 1099.54 302.372 1099.79 302.065V303.446C1099.79 304.673 1098.82 305.875 1097.03 305.875ZM1108.04 307.205C1110.22 307.205 1111.65 305.875 1111.9 304.136H1110.4C1110.11 305.21 1109.22 305.849 1108.04 305.849C1106.25 305.849 1105.1 304.366 1105.1 302.091C1105.1 299.866 1106.28 298.409 1108.04 298.409C1109.37 298.409 1110.17 299.227 1110.4 300.122H1111.9C1111.65 298.281 1110.09 297.054 1108.02 297.054C1105.36 297.054 1103.59 299.151 1103.59 302.142C1103.59 305.082 1105.28 307.205 1108.04 307.205ZM1114.11 307H1115.62V303.325L1116.67 302.347L1120.35 307H1122.27L1117.81 301.375L1121.96 297.182H1120.09L1115.8 301.554H1115.62V293.909H1114.11V307ZM1131.85 307.23C1133.56 307.23 1134.46 306.31 1134.77 305.67H1134.84V307H1136.35V300.531C1136.35 297.412 1133.97 297.054 1132.72 297.054C1131.24 297.054 1129.55 297.565 1128.78 299.355L1130.22 299.866C1130.55 299.151 1131.33 298.384 1132.77 298.384C1134.16 298.384 1134.84 299.119 1134.84 300.378V300.429C1134.84 301.158 1134.1 301.094 1132.31 301.324C1130.49 301.56 1128.5 301.963 1128.5 304.213C1128.5 306.131 1129.99 307.23 1131.85 307.23ZM1132.08 305.875C1130.88 305.875 1130.01 305.338 1130.01 304.29C1130.01 303.139 1131.06 302.781 1132.24 302.628C1132.87 302.551 1134.59 302.372 1134.84 302.065V303.446C1134.84 304.673 1133.87 305.875 1132.08 305.875ZM1140.61 301.094C1140.61 299.381 1141.67 298.409 1143.12 298.409C1144.52 298.409 1145.37 299.323 1145.37 300.864V307H1146.88V300.761C1146.88 298.256 1145.54 297.054 1143.55 297.054C1142.07 297.054 1141.15 297.719 1140.69 298.716H1140.56V297.182H1139.11V307H1140.61V301.094ZM1153.34 307.205C1155.23 307.205 1155.87 306.028 1156.21 305.491H1156.38V307H1157.84V293.909H1156.33V298.741H1156.21C1155.87 298.23 1155.29 297.054 1153.37 297.054C1150.89 297.054 1149.17 299.023 1149.17 302.116C1149.17 305.236 1150.89 307.205 1153.34 307.205ZM1153.55 305.849C1151.65 305.849 1150.68 304.188 1150.68 302.091C1150.68 300.02 1151.63 298.409 1153.55 298.409C1155.39 298.409 1156.36 299.892 1156.36 302.091C1156.36 304.315 1155.36 305.849 1153.55 305.849ZM1055.38 329H1056.89V322.787C1056.89 321.457 1057.94 320.486 1059.37 320.486C1059.77 320.486 1060.19 320.562 1060.29 320.588V319.054C1060.12 319.041 1059.72 319.028 1059.5 319.028C1058.32 319.028 1057.3 319.693 1056.94 320.665H1056.84V319.182H1055.38V329ZM1065.9 329.205C1067.89 329.205 1069.35 328.207 1069.81 326.724L1068.35 326.315C1067.97 327.338 1067.08 327.849 1065.9 327.849C1064.12 327.849 1062.9 326.705 1062.83 324.602H1069.96V323.963C1069.96 320.307 1067.79 319.054 1065.74 319.054C1063.08 319.054 1061.32 321.151 1061.32 324.168C1061.32 327.185 1063.06 329.205 1065.9 329.205ZM1062.83 323.298C1062.94 321.771 1064.02 320.409 1065.74 320.409C1067.38 320.409 1068.43 321.636 1068.43 323.298H1062.83ZM1076.24 329.205C1078.42 329.205 1079.85 327.875 1080.11 326.136H1078.6C1078.32 327.21 1077.42 327.849 1076.24 327.849C1074.45 327.849 1073.3 326.366 1073.3 324.091C1073.3 321.866 1074.48 320.409 1076.24 320.409C1077.57 320.409 1078.37 321.227 1078.6 322.122H1080.11C1079.85 320.281 1078.29 319.054 1076.22 319.054C1073.56 319.054 1071.8 321.151 1071.8 324.142C1071.8 327.082 1073.48 329.205 1076.24 329.205ZM1086.43 329.205C1088.42 329.205 1089.88 328.207 1090.34 326.724L1088.88 326.315C1088.5 327.338 1087.61 327.849 1086.43 327.849C1084.66 327.849 1083.44 326.705 1083.37 324.602H1090.49V323.963C1090.49 320.307 1088.32 319.054 1086.27 319.054C1083.61 319.054 1081.85 321.151 1081.85 324.168C1081.85 327.185 1083.59 329.205 1086.43 329.205ZM1083.37 323.298C1083.47 321.771 1084.55 320.409 1086.27 320.409C1087.91 320.409 1088.96 321.636 1088.96 323.298H1083.37ZM1092.79 329H1094.3V319.182H1092.79V329ZM1093.55 317.545C1094.14 317.545 1094.63 317.085 1094.63 316.523C1094.63 315.96 1094.14 315.5 1093.55 315.5C1092.97 315.5 1092.48 315.96 1092.48 316.523C1092.48 317.085 1092.97 317.545 1093.55 317.545ZM1105.09 319.182H1103.45L1100.74 327.006H1100.64L1097.93 319.182H1096.29L1099.92 329H1101.46L1105.09 319.182ZM1110.84 329.205C1112.84 329.205 1114.29 328.207 1114.75 326.724L1113.3 326.315C1112.91 327.338 1112.03 327.849 1110.84 327.849C1109.07 327.849 1107.85 326.705 1107.78 324.602H1114.91V323.963C1114.91 320.307 1112.73 319.054 1110.69 319.054C1108.03 319.054 1106.27 321.151 1106.27 324.168C1106.27 327.185 1108 329.205 1110.84 329.205ZM1107.78 323.298C1107.88 321.771 1108.96 320.409 1110.69 320.409C1112.33 320.409 1113.37 321.636 1113.37 323.298H1107.78ZM1122.47 329H1124.06V323.886H1126.92C1127.03 323.886 1127.14 323.886 1127.25 323.88L1130.01 329H1131.85L1128.89 323.592C1130.56 323.023 1131.34 321.662 1131.34 319.923C1131.34 317.609 1129.96 315.909 1126.89 315.909H1122.47V329ZM1124.06 322.455V317.315H1126.84C1128.96 317.315 1129.78 318.351 1129.78 319.923C1129.78 321.496 1128.96 322.455 1126.87 322.455H1124.06ZM1145.03 322.455C1145.03 318.312 1142.6 315.73 1139.25 315.73C1135.9 315.73 1133.47 318.312 1133.47 322.455C1133.47 326.597 1135.9 329.179 1139.25 329.179C1142.6 329.179 1145.03 326.597 1145.03 322.455ZM1143.5 322.455C1143.5 325.855 1141.63 327.696 1139.25 327.696C1136.87 327.696 1135.01 325.855 1135.01 322.455C1135.01 319.054 1136.87 317.213 1139.25 317.213C1141.63 317.213 1143.5 319.054 1143.5 322.455ZM1149.28 315.909H1147.69V329H1149.28V315.909Z" fill="#180505"/>
<path d="M751.585 307H753.17V301.145H758.847V299.739H753.17V295.315H759.435V293.909H751.585V307ZM767.517 302.986C767.517 304.827 766.111 305.67 764.986 305.67C763.733 305.67 762.838 304.75 762.838 303.318V297.182H761.33V303.42C761.33 305.926 762.659 307.128 764.5 307.128C765.983 307.128 766.955 306.335 767.415 305.338H767.517V307H769.026V297.182H767.517V302.986ZM773.297 301.094C773.297 299.381 774.358 298.409 775.803 298.409C777.203 298.409 778.053 299.323 778.053 300.864V307H779.562V300.761C779.562 298.256 778.226 297.054 776.238 297.054C774.755 297.054 773.834 297.719 773.374 298.716H773.246V297.182H771.789V307H773.297V301.094ZM786.026 307.205C787.918 307.205 788.557 306.028 788.889 305.491H789.068V307H790.526V293.909H789.017V298.741H788.889C788.557 298.23 787.969 297.054 786.051 297.054C783.571 297.054 781.858 299.023 781.858 302.116C781.858 305.236 783.571 307.205 786.026 307.205ZM786.23 305.849C784.338 305.849 783.366 304.188 783.366 302.091C783.366 300.02 784.312 298.409 786.23 298.409C788.071 298.409 789.043 299.892 789.043 302.091C789.043 304.315 788.045 305.849 786.23 305.849ZM799.532 310.682C800.893 310.682 801.852 309.96 802.421 308.432L806.602 297.207L804.952 297.182L802.242 305.006H802.14L799.43 297.182H797.793L801.424 307.051L801.143 307.818C800.593 309.314 799.915 309.455 798.816 309.173L798.433 310.503C798.586 310.58 799.021 310.682 799.532 310.682ZM812.235 307.205C814.894 307.205 816.683 305.185 816.683 302.142C816.683 299.074 814.894 297.054 812.235 297.054C809.575 297.054 807.786 299.074 807.786 302.142C807.786 305.185 809.575 307.205 812.235 307.205ZM812.235 305.849C810.215 305.849 809.294 304.111 809.294 302.142C809.294 300.173 810.215 298.409 812.235 298.409C814.254 298.409 815.175 300.173 815.175 302.142C815.175 304.111 814.254 305.849 812.235 305.849ZM825.174 302.986C825.174 304.827 823.767 305.67 822.642 305.67C821.39 305.67 820.495 304.75 820.495 303.318V297.182H818.986V303.42C818.986 305.926 820.316 307.128 822.157 307.128C823.64 307.128 824.611 306.335 825.071 305.338H825.174V307H826.682V297.182H825.174V302.986ZM829.445 307H830.954V300.787C830.954 299.457 832.002 298.486 833.434 298.486C833.836 298.486 834.252 298.562 834.354 298.588V297.054C834.182 297.041 833.785 297.028 833.562 297.028C832.385 297.028 831.363 297.693 831.005 298.665H830.903V297.182H829.445V307ZM844.094 307.23C845.807 307.23 846.702 306.31 847.009 305.67H847.086V307H848.594V300.531C848.594 297.412 846.216 297.054 844.963 297.054C843.48 297.054 841.793 297.565 841.026 299.355L842.458 299.866C842.79 299.151 843.576 298.384 845.015 298.384C846.402 298.384 847.086 299.119 847.086 300.378V300.429C847.086 301.158 846.344 301.094 844.554 301.324C842.733 301.56 840.745 301.963 840.745 304.213C840.745 306.131 842.228 307.23 844.094 307.23ZM844.324 305.875C843.123 305.875 842.253 305.338 842.253 304.29C842.253 303.139 843.301 302.781 844.478 302.628C845.117 302.551 846.83 302.372 847.086 302.065V303.446C847.086 304.673 846.114 305.875 844.324 305.875ZM855.336 307.205C857.509 307.205 858.941 305.875 859.197 304.136H857.688C857.407 305.21 856.512 305.849 855.336 305.849C853.546 305.849 852.396 304.366 852.396 302.091C852.396 299.866 853.572 298.409 855.336 298.409C856.666 298.409 857.458 299.227 857.688 300.122H859.197C858.941 298.281 857.382 297.054 855.311 297.054C852.651 297.054 850.887 299.151 850.887 302.142C850.887 305.082 852.575 307.205 855.336 307.205ZM865.391 307.205C867.564 307.205 868.996 305.875 869.252 304.136H867.743C867.462 305.21 866.567 305.849 865.391 305.849C863.601 305.849 862.45 304.366 862.45 302.091C862.45 299.866 863.627 298.409 865.391 298.409C866.72 298.409 867.513 299.227 867.743 300.122H869.252C868.996 298.281 867.436 297.054 865.365 297.054C862.706 297.054 860.942 299.151 860.942 302.142C860.942 305.082 862.629 307.205 865.391 307.205ZM875.445 307.205C878.105 307.205 879.894 305.185 879.894 302.142C879.894 299.074 878.105 297.054 875.445 297.054C872.786 297.054 870.997 299.074 870.997 302.142C870.997 305.185 872.786 307.205 875.445 307.205ZM875.445 305.849C873.426 305.849 872.505 304.111 872.505 302.142C872.505 300.173 873.426 298.409 875.445 298.409C877.465 298.409 878.386 300.173 878.386 302.142C878.386 304.111 877.465 305.849 875.445 305.849ZM888.385 302.986C888.385 304.827 886.978 305.67 885.853 305.67C884.6 305.67 883.706 304.75 883.706 303.318V297.182H882.197V303.42C882.197 305.926 883.527 307.128 885.368 307.128C886.85 307.128 887.822 306.335 888.282 305.338H888.385V307H889.893V297.182H888.385V302.986ZM894.165 301.094C894.165 299.381 895.226 298.409 896.67 298.409C898.07 298.409 898.92 299.323 898.92 300.864V307H900.429V300.761C900.429 298.256 899.093 297.054 897.105 297.054C895.622 297.054 894.702 297.719 894.241 298.716H894.113V297.182H892.656V307H894.165V301.094ZM907.455 297.182H905.359V294.83H903.85V297.182H902.367V298.46H903.85V304.597C903.85 306.31 905.231 307.128 906.509 307.128C907.072 307.128 907.43 307.026 907.634 306.949L907.327 305.594C907.2 305.619 906.995 305.67 906.663 305.67C905.998 305.67 905.359 305.466 905.359 304.188V298.46H907.455V297.182ZM754.27 329.23C755.983 329.23 756.878 328.31 757.185 327.67H757.261V329H758.77V322.531C758.77 319.412 756.392 319.054 755.139 319.054C753.656 319.054 751.969 319.565 751.202 321.355L752.634 321.866C752.966 321.151 753.752 320.384 755.19 320.384C756.577 320.384 757.261 321.119 757.261 322.378V322.429C757.261 323.158 756.52 323.094 754.73 323.324C752.908 323.56 750.92 323.963 750.92 326.213C750.92 328.131 752.403 329.23 754.27 329.23ZM754.5 327.875C753.298 327.875 752.429 327.338 752.429 326.29C752.429 325.139 753.477 324.781 754.653 324.628C755.293 324.551 757.006 324.372 757.261 324.065V325.446C757.261 326.673 756.29 327.875 754.5 327.875ZM763.032 323.094C763.032 321.381 764.093 320.409 765.537 320.409C766.937 320.409 767.787 321.323 767.787 322.864V329H769.296V322.761C769.296 320.256 767.96 319.054 765.972 319.054C764.489 319.054 763.569 319.719 763.108 320.716H762.981V319.182H761.523V329H763.032V323.094ZM775.76 329.205C777.652 329.205 778.291 328.028 778.624 327.491H778.803V329H780.26V315.909H778.751V320.741H778.624C778.291 320.23 777.703 319.054 775.786 319.054C773.305 319.054 771.592 321.023 771.592 324.116C771.592 327.236 773.305 329.205 775.76 329.205ZM775.964 327.849C774.072 327.849 773.101 326.188 773.101 324.091C773.101 322.02 774.047 320.409 775.964 320.409C777.805 320.409 778.777 321.892 778.777 324.091C778.777 326.315 777.78 327.849 775.964 327.849ZM788.295 329H789.803V319.182H788.295V329ZM789.062 317.545C789.65 317.545 790.136 317.085 790.136 316.523C790.136 315.96 789.65 315.5 789.062 315.5C788.474 315.5 787.988 315.96 787.988 316.523C787.988 317.085 788.474 317.545 789.062 317.545ZM794.075 323.094C794.075 321.381 795.136 320.409 796.58 320.409C797.98 320.409 798.83 321.323 798.83 322.864V329H800.339V322.761C800.339 320.256 799.003 319.054 797.015 319.054C795.532 319.054 794.612 319.719 794.151 320.716H794.024V319.182H792.566V329H794.075V323.094ZM810.772 319.182H809.136L806.426 327.006H806.324L803.613 319.182H801.977L805.608 329H807.142L810.772 319.182ZM816.528 329.205C818.523 329.205 819.98 328.207 820.44 326.724L818.983 326.315C818.599 327.338 817.711 327.849 816.528 327.849C814.758 327.849 813.537 326.705 813.467 324.602H820.594V323.963C820.594 320.307 818.42 319.054 816.375 319.054C813.716 319.054 811.952 321.151 811.952 324.168C811.952 327.185 813.69 329.205 816.528 329.205ZM813.467 323.298C813.569 321.771 814.649 320.409 816.375 320.409C818.011 320.409 819.06 321.636 819.06 323.298H813.467ZM829.843 321.381C829.37 319.987 828.309 319.054 826.366 319.054C824.295 319.054 822.761 320.23 822.761 321.892C822.761 323.247 823.566 324.155 825.369 324.577L827.005 324.96C827.996 325.19 828.462 325.663 828.462 326.341C828.462 327.185 827.567 327.875 826.161 327.875C824.928 327.875 824.154 327.344 823.886 326.29L822.454 326.648C822.805 328.316 824.18 329.205 826.187 329.205C828.469 329.205 830.022 327.958 830.022 326.264C830.022 324.896 829.165 324.033 827.414 323.605L825.957 323.247C824.793 322.96 824.269 322.57 824.269 321.815C824.269 320.972 825.164 320.358 826.366 320.358C827.683 320.358 828.226 321.087 828.488 321.764L829.843 321.381ZM836.563 319.182H834.466V316.83H832.958V319.182H831.475V320.46H832.958V326.597C832.958 328.31 834.338 329.128 835.617 329.128C836.179 329.128 836.537 329.026 836.742 328.949L836.435 327.594C836.307 327.619 836.102 327.67 835.77 327.67C835.105 327.67 834.466 327.466 834.466 326.188V320.46H836.563V319.182ZM847.883 329.205C850.542 329.205 852.332 327.185 852.332 324.142C852.332 321.074 850.542 319.054 847.883 319.054C845.224 319.054 843.434 321.074 843.434 324.142C843.434 327.185 845.224 329.205 847.883 329.205ZM847.883 327.849C845.863 327.849 844.943 326.111 844.943 324.142C844.943 322.173 845.863 320.409 847.883 320.409C849.903 320.409 850.823 322.173 850.823 324.142C850.823 326.111 849.903 327.849 847.883 327.849ZM856.143 323.094C856.143 321.381 857.204 320.409 858.649 320.409C860.049 320.409 860.899 321.323 860.899 322.864V329H862.407V322.761C862.407 320.256 861.071 319.054 859.083 319.054C857.6 319.054 856.68 319.719 856.22 320.716H856.092V319.182H854.635V329H856.143V323.094ZM755.369 351.205C757.543 351.205 758.974 349.875 759.23 348.136H757.722C757.44 349.21 756.545 349.849 755.369 349.849C753.58 349.849 752.429 348.366 752.429 346.091C752.429 343.866 753.605 342.409 755.369 342.409C756.699 342.409 757.491 343.227 757.722 344.122H759.23C758.974 342.281 757.415 341.054 755.344 341.054C752.685 341.054 750.92 343.151 750.92 346.142C750.92 349.082 752.608 351.205 755.369 351.205ZM762.944 345.094C762.944 343.381 764.037 342.409 765.526 342.409C766.945 342.409 767.802 343.304 767.802 344.864V351H769.31V344.761C769.31 342.237 767.968 341.054 765.961 341.054C764.414 341.054 763.532 341.7 763.072 342.716H762.944V337.909H761.435V351H762.944V345.094ZM776.059 351.205C778.718 351.205 780.508 349.185 780.508 346.142C780.508 343.074 778.718 341.054 776.059 341.054C773.4 341.054 771.61 343.074 771.61 346.142C771.61 349.185 773.4 351.205 776.059 351.205ZM776.059 349.849C774.039 349.849 773.118 348.111 773.118 346.142C773.118 344.173 774.039 342.409 776.059 342.409C778.079 342.409 778.999 344.173 778.999 346.142C778.999 348.111 778.079 349.849 776.059 349.849ZM786.799 351.205C789.458 351.205 791.248 349.185 791.248 346.142C791.248 343.074 789.458 341.054 786.799 341.054C784.14 341.054 782.35 343.074 782.35 346.142C782.35 349.185 784.14 351.205 786.799 351.205ZM786.799 349.849C784.779 349.849 783.859 348.111 783.859 346.142C783.859 344.173 784.779 342.409 786.799 342.409C788.819 342.409 789.739 344.173 789.739 346.142C789.739 348.111 788.819 349.849 786.799 349.849ZM800.505 343.381C800.032 341.987 798.971 341.054 797.028 341.054C794.957 341.054 793.423 342.23 793.423 343.892C793.423 345.247 794.228 346.155 796.031 346.577L797.667 346.96C798.658 347.19 799.124 347.663 799.124 348.341C799.124 349.185 798.23 349.875 796.823 349.875C795.59 349.875 794.816 349.344 794.548 348.29L793.116 348.648C793.468 350.316 794.842 351.205 796.849 351.205C799.131 351.205 800.684 349.958 800.684 348.264C800.684 346.896 799.828 346.033 798.076 345.605L796.619 345.247C795.455 344.96 794.931 344.57 794.931 343.815C794.931 342.972 795.826 342.358 797.028 342.358C798.345 342.358 798.888 343.087 799.15 343.764L800.505 343.381ZM807.071 351.205C809.066 351.205 810.523 350.207 810.983 348.724L809.526 348.315C809.142 349.338 808.254 349.849 807.071 349.849C805.301 349.849 804.08 348.705 804.01 346.602H811.137V345.963C811.137 342.307 808.963 341.054 806.918 341.054C804.259 341.054 802.495 343.151 802.495 346.168C802.495 349.185 804.233 351.205 807.071 351.205ZM804.01 345.298C804.112 343.771 805.192 342.409 806.918 342.409C808.554 342.409 809.603 343.636 809.603 345.298H804.01ZM814.94 345.094C814.94 343.381 816.001 342.409 817.446 342.409C818.846 342.409 819.696 343.323 819.696 344.864V351H821.204V344.761C821.204 342.256 819.868 341.054 817.88 341.054C816.397 341.054 815.477 341.719 815.017 342.716H814.889V341.182H813.431V351H814.94V345.094ZM829.228 351H833.958C837.052 351 838.33 349.491 838.33 347.523C838.33 345.452 836.898 344.327 835.697 344.25V344.122C836.822 343.815 837.819 343.074 837.819 341.386C837.819 339.469 836.54 337.909 833.805 337.909H829.228V351ZM830.813 349.594V345.043H834.035C835.748 345.043 836.822 346.193 836.822 347.523C836.822 348.673 836.029 349.594 833.958 349.594H830.813ZM830.813 343.662V339.315H833.805C835.543 339.315 836.31 340.236 836.31 341.386C836.31 342.767 835.185 343.662 833.753 343.662H830.813ZM846.918 346.986C846.918 348.827 845.512 349.67 844.387 349.67C843.134 349.67 842.239 348.75 842.239 347.318V341.182H840.73V347.42C840.73 349.926 842.06 351.128 843.901 351.128C845.384 351.128 846.355 350.335 846.816 349.338H846.918V351H848.426V341.182H846.918V346.986ZM858.144 343.381C857.671 341.987 856.61 341.054 854.667 341.054C852.596 341.054 851.061 342.23 851.061 343.892C851.061 345.247 851.867 346.155 853.669 346.577L855.306 346.96C856.297 347.19 856.763 347.663 856.763 348.341C856.763 349.185 855.868 349.875 854.462 349.875C853.228 349.875 852.455 349.344 852.186 348.29L850.755 348.648C851.106 350.316 852.48 351.205 854.488 351.205C856.77 351.205 858.323 349.958 858.323 348.264C858.323 346.896 857.466 346.033 855.715 345.605L854.257 345.247C853.094 344.96 852.57 344.57 852.57 343.815C852.57 342.972 853.465 342.358 854.667 342.358C855.983 342.358 856.527 343.087 856.789 343.764L858.144 343.381ZM860.594 351H862.102V341.182H860.594V351ZM861.361 339.545C861.949 339.545 862.434 339.085 862.434 338.523C862.434 337.96 861.949 337.5 861.361 337.5C860.773 337.5 860.287 337.96 860.287 338.523C860.287 339.085 860.773 339.545 861.361 339.545ZM866.374 345.094C866.374 343.381 867.435 342.409 868.879 342.409C870.279 342.409 871.129 343.323 871.129 344.864V351H872.638V344.761C872.638 342.256 871.302 341.054 869.314 341.054C867.831 341.054 866.911 341.719 866.45 342.716H866.322V341.182H864.865V351H866.374V345.094ZM879.511 351.205C881.505 351.205 882.963 350.207 883.423 348.724L881.965 348.315C881.582 349.338 880.693 349.849 879.511 349.849C877.74 349.849 876.519 348.705 876.449 346.602H883.576V345.963C883.576 342.307 881.403 341.054 879.357 341.054C876.698 341.054 874.934 343.151 874.934 346.168C874.934 349.185 876.673 351.205 879.511 351.205ZM876.449 345.298C876.551 343.771 877.632 342.409 879.357 342.409C880.994 342.409 882.042 343.636 882.042 345.298H876.449ZM892.825 343.381C892.352 341.987 891.291 341.054 889.348 341.054C887.277 341.054 885.743 342.23 885.743 343.892C885.743 345.247 886.548 346.155 888.351 346.577L889.987 346.96C890.978 347.19 891.445 347.663 891.445 348.341C891.445 349.185 890.55 349.875 889.144 349.875C887.91 349.875 887.137 349.344 886.868 348.29L885.436 348.648C885.788 350.316 887.162 351.205 889.169 351.205C891.451 351.205 893.004 349.958 893.004 348.264C893.004 346.896 892.148 346.033 890.396 345.605L888.939 345.247C887.776 344.96 887.252 344.57 887.252 343.815C887.252 342.972 888.146 342.358 889.348 342.358C890.665 342.358 891.208 343.087 891.47 343.764L892.825 343.381ZM902.23 343.381C901.757 341.987 900.696 341.054 898.752 341.054C896.681 341.054 895.147 342.23 895.147 343.892C895.147 345.247 895.953 346.155 897.755 346.577L899.392 346.96C900.382 347.19 900.849 347.663 900.849 348.341C900.849 349.185 899.954 349.875 898.548 349.875C897.314 349.875 896.541 349.344 896.272 348.29L894.841 348.648C895.192 350.316 896.566 351.205 898.574 351.205C900.855 351.205 902.409 349.958 902.409 348.264C902.409 346.896 901.552 346.033 899.801 345.605L898.343 345.247C897.18 344.96 896.656 344.57 896.656 343.815C896.656 342.972 897.551 342.358 898.752 342.358C900.069 342.358 900.613 343.087 900.875 343.764L902.23 343.381Z" fill="#180505"/>
<path d="M101.895 333.091C100.075 333.091 98.2552 334.459 98.2552 336.739V345.858C98.2552 349.05 95.5256 351.33 92.796 351.33H83.6973C81.8776 351.33 80.0579 352.697 80.0579 354.977C80.0579 357.257 81.4227 358.625 83.6973 358.625H92.796C99.62 358.625 105.534 353.153 105.534 345.858V336.739C105.534 334.915 103.714 333.091 101.895 333.091Z" fill="#043D4A"/>
<path d="M83.6976 285.67H92.7962C95.9807 285.67 98.2554 288.406 98.2554 291.142V300.261C98.2554 302.085 99.6202 303.909 101.895 303.909C104.169 303.909 105.534 302.541 105.534 300.261V291.142C105.534 284.303 100.075 278.375 92.7962 278.375H83.6976C81.8778 278.375 80.0581 279.743 80.0581 282.023C80.0581 284.303 81.8778 285.67 83.6976 285.67Z" fill="#043D4A"/>
<path d="M47.3029 351.33H38.2042C35.0197 351.33 32.7451 348.594 32.7451 345.858V336.739C32.7451 334.915 31.3803 333.091 29.1056 333.091C26.8309 333.091 25.4662 334.915 25.4662 336.739V345.858C25.4662 352.697 30.9253 358.625 38.2042 358.625H47.3029C49.1226 358.625 50.9423 357.257 50.9423 354.977C50.9423 352.697 49.1226 351.33 47.3029 351.33Z" fill="#043D4A"/>
<path d="M29.1057 303.909C30.9254 303.909 32.7452 302.541 32.7452 300.261V291.142C32.7452 287.95 35.4748 285.67 38.2043 285.67H47.303C49.1227 285.67 50.9424 284.303 50.9424 282.023C50.9424 279.743 49.1227 278.375 47.303 278.375H38.2043C31.3804 278.375 25.4663 284.303 25.4663 291.142V300.261C25.4663 302.085 27.286 303.909 29.1057 303.909Z" fill="#043D4A"/>
<path d="M83.6976 345.858C88.7019 345.858 92.7962 341.754 92.7962 336.739V328.531H38.2044V336.739C38.2044 341.754 42.2988 345.858 47.303 345.858H83.6976Z" fill="#043D4A"/>
<path d="M106.444 314.852H92.7962V300.262C92.7962 295.246 88.7018 291.142 83.6976 291.142H47.303C42.2987 291.142 38.2043 295.246 38.2043 300.262V315.764H24.5564C22.7367 315.764 20.9169 317.132 20.9169 319.412C20.9169 321.692 22.2817 323.06 24.5564 323.06H106.444C108.264 323.06 110.084 321.692 110.084 319.412C110.084 317.132 108.264 314.852 106.444 314.852Z" fill="#043D4A"/>
<path d="M726.334 314.353C725.955 305.942 724.439 294.856 723.302 287.21C722.544 282.24 718.374 278.417 713.067 278.417H666.063C660.756 278.417 656.586 282.24 655.828 287.21C654.691 295.238 653.554 305.942 652.796 314.353C652.417 322.381 652.417 333.468 652.417 341.497C652.417 346.849 656.586 351.054 661.893 351.436C669.854 352.201 680.847 352.583 689.186 352.583C697.525 352.583 708.518 351.819 716.479 351.436C721.786 351.054 725.955 346.849 725.955 341.497C726.713 333.468 726.713 322.381 726.334 314.353ZM689.565 314.735C679.709 314.735 671.37 306.707 671.37 296.385C671.37 294.856 672.507 293.326 674.402 293.326C676.298 293.326 677.435 294.856 677.435 296.385C677.435 303.266 683.121 308.619 689.565 308.619C696.009 308.619 701.695 302.884 701.695 296.385C701.695 294.856 702.832 293.326 704.728 293.326C706.623 293.326 707.76 294.473 707.76 296.385C707.76 306.325 699.421 314.735 689.565 314.735Z" fill="#043D4A"/>
<path d="M993.5 280.25C973.526 280.25 957.25 296.526 957.25 316.5C957.25 336.475 973.526 352.75 993.5 352.75C1013.47 352.75 1029.75 336.475 1029.75 316.5C1029.75 296.526 1013.47 280.25 993.5 280.25ZM982.403 301.704C984.253 301.704 986.102 303.554 986.102 305.403C986.102 307.253 984.253 309.102 982.403 309.102C980.554 309.102 978.704 307.253 978.704 305.403C978.704 303.554 980.554 301.704 982.403 301.704ZM1006.45 329.816C1002.38 332.776 999.048 334.255 993.5 334.255C987.952 334.255 984.992 333.145 980.554 329.816C979.444 329.077 979.074 327.227 980.184 326.117C981.293 325.008 982.773 324.638 983.883 325.747C987.212 327.967 989.431 328.707 993.13 328.707C996.829 328.707 999.418 327.967 1002.38 325.747C1003.49 325.008 1005.34 325.008 1006.08 326.117C1006.82 327.227 1007.56 328.707 1006.45 329.816ZM1004.6 309.102C1002.75 309.102 1000.9 307.253 1000.9 305.403C1000.9 303.554 1002.75 301.704 1004.6 301.704C1006.45 301.704 1008.3 303.554 1008.3 305.403C1008.3 307.253 1006.45 309.102 1004.6 309.102Z" fill="#043D4A"/>
<g clip-path="url(#clip0_1030_4)">
<path fill-rule="evenodd" clip-rule="evenodd" d="M204.658 434.033C261.692 487.658 339.52 473.901 401.662 435.479C402.731 434.821 404.136 435.15 404.794 436.219C405.452 437.287 405.123 438.692 404.054 439.35C340.174 478.851 260.171 492.473 201.54 437.345C200.625 436.488 200.582 435.049 201.443 434.13C202.3 433.215 203.74 433.172 204.658 434.033Z" fill="#DF1A1A"/>
<path fill-rule="evenodd" clip-rule="evenodd" d="M401.693 438.137C397.698 438.295 392.687 438.55 392.118 438.562C376.685 438.896 362.028 436.817 347.167 432.524C345.96 432.177 345.264 430.912 345.61 429.706C345.957 428.499 347.222 427.803 348.429 428.149C362.839 432.317 377.053 434.336 392.023 434.011C392.896 433.993 404.16 433.414 406.446 433.468C407.384 433.486 407.909 433.787 408.026 433.87C408.665 434.287 408.906 434.821 409.01 435.266C409.124 435.77 409.11 436.646 408.479 437.587C407.814 438.57 405.945 440.26 405.507 440.724C398.926 447.754 390.968 455.026 384.987 463.237C379.282 471.066 375.371 479.759 376.569 490.003C376.716 491.249 375.818 492.381 374.571 492.528C373.324 492.675 372.193 491.777 372.046 490.53C370.708 479.076 374.932 469.308 381.306 460.558C387.253 452.397 395.091 445.132 401.693 438.137Z" fill="#DF1A1A"/>
</g>
<g clip-path="url(#clip1_1030_4)">
<path fill-rule="evenodd" clip-rule="evenodd" d="M535.658 434.033C592.692 487.658 670.52 473.901 732.662 435.479C733.731 434.821 735.136 435.15 735.794 436.219C736.452 437.287 736.123 438.692 735.054 439.35C671.174 478.851 591.171 492.473 532.54 437.345C531.625 436.488 531.582 435.049 532.443 434.13C533.3 433.215 534.74 433.172 535.658 434.033Z" fill="#DF1A1A"/>
<path fill-rule="evenodd" clip-rule="evenodd" d="M732.693 438.137C728.698 438.295 723.687 438.55 723.118 438.562C707.685 438.896 693.028 436.817 678.167 432.524C676.96 432.177 676.264 430.912 676.61 429.706C676.957 428.499 678.222 427.803 679.429 428.149C693.839 432.317 708.053 434.336 723.023 434.011C723.896 433.993 735.16 433.414 737.446 433.468C738.384 433.486 738.909 433.787 739.026 433.87C739.665 434.287 739.906 434.821 740.01 435.266C740.124 435.77 740.11 436.646 739.479 437.587C738.814 438.57 736.945 440.26 736.507 440.724C729.926 447.754 721.968 455.026 715.987 463.237C710.282 471.066 706.371 479.759 707.569 490.003C707.716 491.249 706.818 492.381 705.571 492.528C704.324 492.675 703.193 491.777 703.046 490.53C701.708 479.076 705.932 469.308 712.306 460.558C718.253 452.397 726.091 445.132 732.693 438.137Z" fill="#DF1A1A"/>
</g>
<g clip-path="url(#clip2_1030_4)">
<path fill-rule="evenodd" clip-rule="evenodd" d="M842.658 434.033C899.692 487.658 977.52 473.901 1039.66 435.479C1040.73 434.821 1042.14 435.15 1042.79 436.219C1043.45 437.287 1043.12 438.692 1042.05 439.35C978.174 478.851 898.171 492.473 839.54 437.345C838.625 436.488 838.582 435.049 839.443 434.13C840.3 433.215 841.74 433.172 842.658 434.033Z" fill="#DF1A1A"/>
<path fill-rule="evenodd" clip-rule="evenodd" d="M1039.69 438.137C1035.7 438.295 1030.69 438.55 1030.12 438.562C1014.69 438.896 1000.03 436.817 985.167 432.524C983.96 432.177 983.264 430.912 983.61 429.706C983.957 428.499 985.222 427.803 986.429 428.149C1000.84 432.317 1015.05 434.336 1030.02 434.011C1030.9 433.993 1042.16 433.414 1044.45 433.468C1045.38 433.486 1045.91 433.787 1046.03 433.87C1046.67 434.287 1046.91 434.821 1047.01 435.266C1047.12 435.77 1047.11 436.646 1046.48 437.587C1045.81 438.57 1043.94 440.26 1043.51 440.724C1036.93 447.754 1028.97 455.026 1022.99 463.237C1017.28 471.066 1013.37 479.759 1014.57 490.003C1014.72 491.249 1013.82 492.381 1012.57 492.528C1011.32 492.675 1010.19 491.777 1010.05 490.53C1008.71 479.076 1012.93 469.308 1019.31 460.558C1025.25 452.397 1033.09 445.132 1039.69 438.137Z" fill="#DF1A1A"/>
</g>
<defs>
<filter id="filter0_d_1030_4" x="272" y="177" width="455" height="568" filterUnits="userSpaceOnUse" color-interpolation-filters="sRGB">
<feFlood flood-opacity="0" result="BackgroundImageFix"/>
<feColorMatrix in="SourceAlpha" type="matrix" values="0 0 0 0 0 0 0 0 0 0 0 0 0 0 0 0 0 0 127 0" result="hardAlpha"/>
<feOffset dx="34" dy="34"/>
<feGaussianBlur stdDeviation="32"/>
<feColorMatrix type="matrix" values="0 0 0 0 0.787639 0 0 0 0 0.801816 0 0 0 0 0.883333 0 0 0 0.48 0"/>
<feBlend mode="multiply" in2="BackgroundImageFix" result="effect1_dropShadow_1030_4"/>
<feBlend mode="normal" in="SourceGraphic" in2="effect1_dropShadow_1030_4" result="shape"/>
</filter>
<clipPath id="clip0_1030_4">
<rect width="164.744" height="164.744" fill="white" transform="matrix(-0.783123 0.621866 0.621866 0.783123 325.015 329)"/>
</clipPath>
<clipPath id="clip1_1030_4">
<rect width="164.744" height="164.744" fill="white" transform="matrix(-0.783123 0.621866 0.621866 0.783123 656.015 329)"/>
</clipPath>
<clipPath id="clip2_1030_4">
<rect width="164.744" height="164.744" fill="white" transform="matrix(-0.783123 0.621866 0.621866 0.783123 963.015 329)"/>
</clipPath>
</defs>
</svg>
