<svg width="1917" height="1013" viewBox="0 0 1917 1013" fill="none" xmlns="http://www.w3.org/2000/svg">
<path d="M1506.57 1013C1397.19 1013 1294.36 969.614 1217 890.868L1220.7 887.096C1378.33 1047.61 1634.77 1047.61 1792.4 887.096C1868.76 809.34 1910.81 705.958 1910.81 596.023C1910.81 486.088 1868.76 382.68 1792.4 304.95L1796.11 301.178C1873.46 379.952 1916.04 484.671 1916.04 596.05C1916.04 707.429 1873.44 812.148 1796.11 890.921C1718.78 969.641 1615.94 1013 1506.57 1013Z" fill="#F9F9F9"/>
<path d="M1506.57 984.139C1408.91 984.139 1311.27 946.29 1236.94 870.593L1240.64 866.821C1387.26 1016.13 1625.84 1016.13 1772.49 866.821C1919.11 717.513 1919.11 474.533 1772.49 325.225L1776.2 321.453C1924.87 472.848 1924.87 719.198 1776.2 870.62C1701.86 946.29 1604.2 984.139 1506.57 984.139Z" fill="#F9F9F9"/>
<path d="M1506.57 955.625C1412.24 955.625 1323.56 918.205 1256.85 850.291L1260.55 846.52C1326.27 913.444 1413.63 950.276 1506.54 950.276C1599.47 950.276 1686.84 913.417 1752.53 846.52C1818.25 779.596 1854.42 690.632 1854.42 596.023C1854.42 501.388 1818.22 412.424 1752.53 345.527L1756.23 341.755C1822.92 409.669 1859.67 499.997 1859.67 596.05C1859.67 692.103 1822.92 782.404 1756.23 850.345C1689.57 918.205 1600.89 955.625 1506.57 955.625Z" fill="#F9F9F9"/>
<path d="M1506.57 926.764C1423.35 926.764 1340.14 894.506 1276.78 829.989L1280.49 826.218C1405.15 953.164 1607.98 953.164 1732.65 826.218C1857.31 699.271 1857.31 492.722 1732.65 365.775L1736.35 362.004C1863.06 491.037 1863.06 700.983 1736.35 829.989C1672.99 894.506 1589.78 926.764 1506.57 926.764Z" fill="#F9F9F9"/>
<path d="M1506.57 898.09C1430.58 898.09 1354.56 868.64 1296.69 809.714L1300.4 805.943C1414.08 921.709 1599.03 921.709 1712.68 805.943C1826.37 690.177 1826.37 501.843 1712.68 386.104L1716.39 382.332C1832.09 500.158 1832.09 691.915 1716.39 809.741C1658.57 868.64 1582.56 898.09 1506.57 898.09Z" fill="#F9F9F9"/>
<path d="M1506.57 869.416C1437.77 869.416 1368.98 842.748 1316.63 789.439L1320.33 785.668C1423.01 890.226 1590.09 890.226 1692.77 785.668C1742.52 735.007 1769.92 667.655 1769.92 596.023C1769.92 524.392 1742.52 457.04 1692.77 406.379L1696.48 402.608C1747.22 454.258 1775.14 522.974 1775.14 596.023C1775.14 669.073 1747.2 737.789 1696.48 789.439C1644.13 842.748 1575.36 869.416 1506.57 869.416Z" fill="#F9F9F9"/>
<path d="M1506.57 840.742C1445 840.742 1383.43 816.883 1336.54 769.137L1340.24 765.366C1431.94 858.744 1581.14 858.744 1672.84 765.366C1764.53 671.988 1764.53 520.059 1672.84 426.681L1676.54 422.91C1770.29 518.374 1770.29 673.7 1676.54 769.164C1629.71 816.856 1568.14 840.742 1506.57 840.742Z" fill="#F9F9F9"/>
<path d="M1669.95 282L1654.79 297.407V282H1669.95Z" fill="#F9F9F9"/>
<path d="M1698 282L1654.79 326.001V310.594L1682.87 282H1698Z" fill="#F9F9F9"/>
<path d="M1782 282L1654.79 411.514V396.348L1767.08 282H1782Z" fill="#F9F9F9"/>
<path d="M1754.16 282L1654.79 383.161V367.755L1739.03 282H1754.16Z" fill="#F9F9F9"/>
<path d="M1726.08 282L1654.79 354.594V339.161L1710.95 282H1726.08Z" fill="#F9F9F9"/>
<g filter="url(#filter0_ddii_1047_6)">
<circle r="209.5" transform="matrix(1 0 0 -1 -134.5 537.5)" fill="url(#paint0_radial_1047_6)"/>
<circle r="209" transform="matrix(1 0 0 -1 -134.5 537.5)" stroke="url(#paint1_linear_1047_6)"/>
</g>
<g filter="url(#filter1_ddii_1047_6)">
<circle r="209.5" transform="matrix(1 0 0 -1 -134.5 289.5)" fill="url(#paint2_radial_1047_6)"/>
<circle r="209" transform="matrix(1 0 0 -1 -134.5 289.5)" stroke="url(#paint3_linear_1047_6)"/>
</g>
<path d="M196.174 799.921C191.904 799.921 188.816 803.009 188.816 807.24C188.816 811.51 191.904 814.598 196.136 814.598C200.406 814.598 203.456 811.51 203.494 807.279C203.494 803.009 200.444 799.921 196.174 799.921Z" fill="#BFD0D1"/>
<path d="M269.599 799.921C265.329 799.845 262.127 802.856 262.05 807.088C261.974 811.358 265.024 814.56 269.217 814.636C273.487 814.712 276.651 811.701 276.728 807.469C276.842 803.161 273.83 799.997 269.599 799.921Z" fill="#BFD0D1"/>
<path d="M342.756 799.921C338.487 799.883 335.36 802.971 335.322 807.202C335.284 811.472 338.372 814.598 342.604 814.636C346.874 814.674 349.962 811.624 350 807.355C350.038 803.047 347.026 799.959 342.756 799.921Z" fill="#BFD0D1"/>
<path d="M12.9559 851.272C17.2256 851.272 20.3136 848.222 20.3136 843.953C20.3136 839.683 17.2637 836.595 12.994 836.595C8.72422 836.595 5.63627 839.683 5.63627 843.915C5.59815 848.146 8.72422 851.234 12.9559 851.272Z" fill="#BFD0D1"/>
<path d="M86.1135 851.272C90.3833 851.31 93.5093 848.299 93.5856 844.029C93.6237 839.721 90.612 836.595 86.3804 836.557C82.1106 836.519 78.9464 839.53 78.9083 843.762C78.8321 848.032 81.92 851.196 86.1135 851.272Z" fill="#BFD0D1"/>
<path d="M159.424 836.557C155.192 836.595 152.104 839.721 152.142 843.991C152.18 848.222 155.344 851.31 159.576 851.272C163.846 851.234 166.858 848.108 166.819 843.838C166.819 839.568 163.693 836.519 159.424 836.557Z" fill="#BFD0D1"/>
<path d="M233.077 836.557C228.807 836.442 225.567 839.416 225.414 843.61C225.3 847.879 228.274 851.12 232.467 851.272C236.737 851.387 239.977 848.413 240.092 844.219C240.244 839.873 237.309 836.671 233.077 836.557Z" fill="#BFD0D1"/>
<path d="M306.196 836.557C301.927 836.519 298.762 839.568 298.724 843.762C298.686 848.032 301.736 851.196 305.968 851.234C310.237 851.272 313.364 848.222 313.402 843.991C313.44 839.721 310.428 836.595 306.196 836.557Z" fill="#BFD0D1"/>
<path d="M49.63 887.908C53.8998 887.87 56.9496 884.782 56.9115 880.512C56.9115 876.243 53.8235 873.193 49.5538 873.193C45.284 873.193 42.2342 876.319 42.2342 880.589C42.2723 884.82 45.3984 887.908 49.63 887.908Z" fill="#BFD0D1"/>
<path d="M115.544 880.017C115.316 884.324 118.213 887.641 122.368 887.908C126.638 888.137 129.993 885.239 130.222 881.084C130.45 876.776 127.591 873.46 123.436 873.231C119.09 872.964 115.773 875.861 115.544 880.017Z" fill="#BFD0D1"/>
<path d="M196.441 873.193C192.171 873.078 188.931 876.014 188.816 880.246C188.702 884.515 191.676 887.756 195.869 887.908C200.139 888.023 203.379 885.049 203.494 880.855C203.608 876.509 200.673 873.307 196.441 873.193Z" fill="#BFD0D1"/>
<path d="M269.294 873.193C265.062 873.231 262.012 876.395 262.088 880.665C262.127 884.896 265.291 887.946 269.561 887.908C273.792 887.832 276.804 884.706 276.766 880.436C276.69 876.166 273.563 873.154 269.294 873.193Z" fill="#BFD0D1"/>
<path d="M86.2279 924.544C90.4976 924.544 93.5475 921.494 93.5856 917.225C93.5856 912.955 90.5358 909.867 86.266 909.867C81.9963 909.867 78.9083 912.955 78.9083 917.187C78.9083 921.418 81.9963 924.544 86.2279 924.544Z" fill="#BFD0D1"/>
<path d="M159.347 909.829C155.116 909.905 152.066 913.069 152.142 917.339C152.219 921.571 155.383 924.62 159.652 924.544C163.884 924.468 166.896 921.342 166.82 917.034C166.781 912.764 163.655 909.753 159.347 909.829Z" fill="#BFD0D1"/>
<path d="M232.925 909.829C228.655 909.79 225.491 912.84 225.453 917.034C225.414 921.304 228.464 924.468 232.696 924.506C236.966 924.544 240.092 921.532 240.13 917.263C240.168 912.993 237.156 909.867 232.925 909.829Z" fill="#BFD0D1"/>
<path d="M122.597 961.18C126.867 961.294 130.107 958.321 130.222 954.127C130.336 949.82 127.401 946.617 123.207 946.503C118.937 946.388 115.697 949.362 115.544 953.556C115.392 957.787 118.404 961.028 122.597 961.18Z" fill="#BFD0D1"/>
<path d="M196.327 946.465C192.057 946.388 188.854 949.4 188.778 953.632C188.702 957.901 191.752 961.104 195.945 961.18C200.215 961.256 203.379 958.245 203.455 954.013C203.57 949.705 200.558 946.541 196.327 946.465Z" fill="#BFD0D1"/>
<path d="M159.386 983.101C155.154 983.177 152.104 986.303 152.18 990.573C152.257 994.804 155.421 997.854 159.652 997.778C163.884 997.702 166.896 994.576 166.858 990.306C166.781 986.074 163.655 983.024 159.386 983.101Z" fill="#BFD0D1"/>
<path d="M86.2661 704.728C90.5359 704.728 93.5857 701.64 93.5857 697.332C93.5857 693.062 90.4978 690.013 86.228 690.013C81.9582 690.013 78.8703 693.139 78.9084 697.37C78.9084 701.64 82.0345 704.728 86.2661 704.728Z" fill="#BFD0D1"/>
<path d="M166.819 697.866C167.048 693.558 164.189 690.241 160.034 690.013C155.726 689.784 152.409 692.681 152.18 696.837C151.952 701.106 154.849 704.461 159.004 704.69C163.274 704.957 166.629 702.021 166.819 697.866Z" fill="#BFD0D1"/>
<path d="M232.925 690.013C228.655 689.974 225.491 693.024 225.453 697.218C225.414 701.488 228.464 704.652 232.696 704.69C236.966 704.728 240.092 701.716 240.13 697.447C240.168 693.177 237.156 690.089 232.925 690.013Z" fill="#BFD0D1"/>
<path d="M49.7445 741.364C53.9761 741.288 56.9878 738.162 56.9497 733.892C56.9115 729.66 53.7855 726.61 49.4776 726.687C45.246 726.763 42.1961 729.889 42.2724 734.159C42.3105 738.352 45.4747 741.402 49.7445 741.364Z" fill="#BFD0D1"/>
<path d="M123.016 726.649C118.747 726.611 115.621 729.622 115.544 733.854C115.506 738.124 118.518 741.288 122.75 741.326C127.019 741.364 130.145 738.353 130.222 734.083C130.26 729.851 127.248 726.725 123.016 726.649Z" fill="#BFD0D1"/>
<path d="M196.212 726.649C191.943 726.611 188.816 729.661 188.816 733.93C188.778 738.2 191.866 741.326 196.098 741.364C200.368 741.402 203.456 738.314 203.494 734.083C203.494 729.775 200.482 726.687 196.212 726.649Z" fill="#BFD0D1"/>
<path d="M269.408 726.649C265.138 726.649 262.089 729.737 262.089 734.006C262.089 738.276 265.215 741.364 269.446 741.326C273.716 741.326 276.766 738.238 276.766 733.93C276.728 729.698 273.678 726.649 269.408 726.649Z" fill="#BFD0D1"/>
<path d="M12.8797 778C17.1494 778.038 20.2374 774.988 20.2755 770.719C20.3136 766.449 17.2638 763.323 13.0322 763.285C8.76244 763.247 5.63636 766.335 5.59824 770.566C5.59824 774.798 8.68619 777.962 12.8797 778Z" fill="#BFD0D1"/>
<path d="M86.1516 778C90.4214 778.038 93.5093 774.988 93.5474 770.719C93.5856 766.449 90.5357 763.323 86.3041 763.285C82.0343 763.247 78.9083 766.335 78.8701 770.566C78.8701 774.798 81.9581 777.962 86.1516 778Z" fill="#BFD0D1"/>
<path d="M159.805 763.285C155.535 763.17 152.295 766.144 152.142 770.338C152.028 774.607 155.001 777.848 159.195 778C163.465 778.153 166.705 775.141 166.819 770.947C166.972 766.601 164.037 763.437 159.805 763.285Z" fill="#BFD0D1"/>
<path d="M232.81 763.284C228.54 763.284 225.452 766.372 225.452 770.604C225.452 774.874 228.54 777.962 232.772 778C237.042 778 240.13 774.95 240.13 770.68C240.13 766.372 237.08 763.284 232.81 763.284Z" fill="#BFD0D1"/>
<path d="M306.12 763.285C301.85 763.247 298.724 766.335 298.686 770.566C298.648 774.836 301.736 777.962 305.968 778C310.237 778.038 313.325 774.95 313.364 770.719C313.402 766.411 310.39 763.323 306.12 763.285Z" fill="#BFD0D1"/>
<path d="M49.325 814.636C53.5948 814.789 56.8352 811.777 56.9496 807.583C57.064 803.275 54.1285 800.073 49.935 799.921C45.6652 799.806 42.4248 802.78 42.2723 806.973C42.1198 811.243 45.1315 814.484 49.325 814.636Z" fill="#BFD0D1"/>
<path d="M122.978 799.921C118.709 799.883 115.544 802.932 115.506 807.164C115.468 811.434 118.518 814.598 122.75 814.636C127.019 814.674 130.145 811.624 130.183 807.393C130.26 803.085 127.248 799.959 122.978 799.921Z" fill="#BFD0D1"/>
<defs>
<filter id="filter0_ddii_1047_6" x="-424" y="248" width="597" height="597" filterUnits="userSpaceOnUse" color-interpolation-filters="sRGB">
<feFlood flood-opacity="0" result="BackgroundImageFix"/>
<feColorMatrix in="SourceAlpha" type="matrix" values="0 0 0 0 0 0 0 0 0 0 0 0 0 0 0 0 0 0 127 0" result="hardAlpha"/>
<feOffset dx="34" dy="34"/>
<feGaussianBlur stdDeviation="32"/>
<feColorMatrix type="matrix" values="0 0 0 0 0.196078 0 0 0 0 0.211765 0 0 0 0 0.301961 0 0 0 0.48 0"/>
<feBlend mode="multiply" in2="BackgroundImageFix" result="effect1_dropShadow_1047_6"/>
<feColorMatrix in="SourceAlpha" type="matrix" values="0 0 0 0 0 0 0 0 0 0 0 0 0 0 0 0 0 0 127 0" result="hardAlpha"/>
<feOffset dx="-32" dy="-32"/>
<feGaussianBlur stdDeviation="24"/>
<feColorMatrix type="matrix" values="0 0 0 0 0.298039 0 0 0 0 0.32549 0 0 0 0 0.462745 0 0 0 0.17 0"/>
<feBlend mode="normal" in2="effect1_dropShadow_1047_6" result="effect2_dropShadow_1047_6"/>
<feBlend mode="normal" in="SourceGraphic" in2="effect2_dropShadow_1047_6" result="shape"/>
<feColorMatrix in="SourceAlpha" type="matrix" values="0 0 0 0 0 0 0 0 0 0 0 0 0 0 0 0 0 0 127 0" result="hardAlpha"/>
<feOffset dx="2" dy="2"/>
<feGaussianBlur stdDeviation="1"/>
<feComposite in2="hardAlpha" operator="arithmetic" k2="-1" k3="1"/>
<feColorMatrix type="matrix" values="0 0 0 0 0.324479 0 0 0 0 0.360489 0 0 0 0 0.533333 0 0 0 0.11 0"/>
<feBlend mode="screen" in2="shape" result="effect3_innerShadow_1047_6"/>
<feColorMatrix in="SourceAlpha" type="matrix" values="0 0 0 0 0 0 0 0 0 0 0 0 0 0 0 0 0 0 127 0" result="hardAlpha"/>
<feOffset dx="-1" dy="-1"/>
<feGaussianBlur stdDeviation="2"/>
<feComposite in2="hardAlpha" operator="arithmetic" k2="-1" k3="1"/>
<feColorMatrix type="matrix" values="0 0 0 0 0.172549 0 0 0 0 0.188235 0 0 0 0 0.266667 0 0 0 0.2 0"/>
<feBlend mode="multiply" in2="effect3_innerShadow_1047_6" result="effect4_innerShadow_1047_6"/>
</filter>
<filter id="filter1_ddii_1047_6" x="-424" y="0" width="597" height="597" filterUnits="userSpaceOnUse" color-interpolation-filters="sRGB">
<feFlood flood-opacity="0" result="BackgroundImageFix"/>
<feColorMatrix in="SourceAlpha" type="matrix" values="0 0 0 0 0 0 0 0 0 0 0 0 0 0 0 0 0 0 127 0" result="hardAlpha"/>
<feOffset dx="34" dy="34"/>
<feGaussianBlur stdDeviation="32"/>
<feColorMatrix type="matrix" values="0 0 0 0 0.196078 0 0 0 0 0.211765 0 0 0 0 0.301961 0 0 0 0.48 0"/>
<feBlend mode="multiply" in2="BackgroundImageFix" result="effect1_dropShadow_1047_6"/>
<feColorMatrix in="SourceAlpha" type="matrix" values="0 0 0 0 0 0 0 0 0 0 0 0 0 0 0 0 0 0 127 0" result="hardAlpha"/>
<feOffset dx="-32" dy="-32"/>
<feGaussianBlur stdDeviation="24"/>
<feColorMatrix type="matrix" values="0 0 0 0 0.298039 0 0 0 0 0.32549 0 0 0 0 0.462745 0 0 0 0.17 0"/>
<feBlend mode="normal" in2="effect1_dropShadow_1047_6" result="effect2_dropShadow_1047_6"/>
<feBlend mode="normal" in="SourceGraphic" in2="effect2_dropShadow_1047_6" result="shape"/>
<feColorMatrix in="SourceAlpha" type="matrix" values="0 0 0 0 0 0 0 0 0 0 0 0 0 0 0 0 0 0 127 0" result="hardAlpha"/>
<feOffset dx="2" dy="2"/>
<feGaussianBlur stdDeviation="1"/>
<feComposite in2="hardAlpha" operator="arithmetic" k2="-1" k3="1"/>
<feColorMatrix type="matrix" values="0 0 0 0 0.324479 0 0 0 0 0.360489 0 0 0 0 0.533333 0 0 0 0.11 0"/>
<feBlend mode="screen" in2="shape" result="effect3_innerShadow_1047_6"/>
<feColorMatrix in="SourceAlpha" type="matrix" values="0 0 0 0 0 0 0 0 0 0 0 0 0 0 0 0 0 0 127 0" result="hardAlpha"/>
<feOffset dx="-1" dy="-1"/>
<feGaussianBlur stdDeviation="2"/>
<feComposite in2="hardAlpha" operator="arithmetic" k2="-1" k3="1"/>
<feColorMatrix type="matrix" values="0 0 0 0 0.172549 0 0 0 0 0.188235 0 0 0 0 0.266667 0 0 0 0.2 0"/>
<feBlend mode="multiply" in2="effect3_innerShadow_1047_6" result="effect4_innerShadow_1047_6"/>
</filter>
<radialGradient id="paint0_radial_1047_6" cx="0" cy="0" r="1" gradientUnits="userSpaceOnUse" gradientTransform="rotate(45) scale(592.555 882.179)">
<stop offset="0.0503676" stop-color="#1E242C"/>
<stop offset="0.825281" stop-color="#1E242C"/>
</radialGradient>
<linearGradient id="paint1_linear_1047_6" x1="0" y1="0" x2="313.054" y2="316.609" gradientUnits="userSpaceOnUse">
<stop stop-color="#5D658E" stop-opacity="0.48"/>
<stop offset="0.909911" stop-color="#23273E" stop-opacity="0"/>
</linearGradient>
<radialGradient id="paint2_radial_1047_6" cx="0" cy="0" r="1" gradientUnits="userSpaceOnUse" gradientTransform="rotate(45) scale(592.555 882.179)">
<stop offset="0.0503676" stop-color="#DF1A1A"/>
<stop offset="0.825281" stop-color="#371510"/>
</radialGradient>
<linearGradient id="paint3_linear_1047_6" x1="0" y1="0" x2="313.054" y2="316.609" gradientUnits="userSpaceOnUse">
<stop stop-color="#5D658E" stop-opacity="0.48"/>
<stop offset="0.909911" stop-color="#23273E" stop-opacity="0"/>
</linearGradient>
</defs>
</svg>
