<svg width="1920" height="1945" viewBox="0 0 1920 1945" fill="none" xmlns="http://www.w3.org/2000/svg">
<path d="M33.7568 1141.44C-88.1322 1140.52 -203.092 1187.13 -289.951 1272.66L-285.855 1276.82C-108.863 1102.48 176.921 1104.65 351.252 1281.64C435.701 1367.38 481.708 1480.87 480.797 1601.18C479.885 1721.49 432.163 1834.3 346.425 1918.72L350.521 1922.88C437.38 1837.33 485.699 1723.08 486.622 1601.2C487.546 1479.31 440.935 1364.35 355.411 1277.49C269.886 1190.69 155.646 1142.37 33.7568 1141.44Z" fill="#F9F9F9"/>
<path d="M33.5175 1173.03C-75.3161 1172.21 -184.434 1212.8 -267.902 1295.01L-263.806 1299.17C-99.1711 1137.01 166.707 1139.03 328.895 1303.66C491.054 1468.3 489.039 1734.2 324.405 1896.36L328.501 1900.52C495.436 1736.1 497.479 1466.5 333.054 1299.54C250.842 1216.1 142.322 1173.85 33.5175 1173.03Z" fill="#F9F9F9"/>
<path d="M33.2811 1204.23C-71.835 1203.44 -170.968 1243.64 -245.882 1317.4L-241.786 1321.56C-167.992 1248.87 -70.328 1209.3 33.2074 1210.09C136.772 1210.87 233.825 1251.95 306.48 1325.71C379.164 1399.5 418.734 1497.17 417.95 1600.7C417.165 1704.27 376.09 1801.32 302.326 1873.98L306.422 1878.14C381.307 1804.38 423.008 1705.84 423.804 1600.72C424.601 1495.6 384.398 1396.47 310.639 1321.56C236.909 1246.73 138.397 1205.03 33.2811 1204.23Z" fill="#F9F9F9"/>
<path d="M33.0418 1235.82C-59.6922 1235.12 -152.694 1269.72 -223.833 1339.78L-219.737 1343.94C-79.7589 1206.07 146.28 1207.78 284.153 1347.76C422.026 1487.74 420.313 1713.78 280.335 1851.65L284.431 1855.81C426.71 1715.67 428.45 1485.91 288.312 1343.66C218.242 1272.53 125.776 1236.52 33.0418 1235.82Z" fill="#F9F9F9"/>
<path d="M32.804 1267.2C-51.8801 1266.56 -136.838 1298.14 -201.813 1362.14L-197.717 1366.3C-70.0672 1240.57 136.038 1242.13 261.738 1369.78C387.468 1497.43 385.906 1703.53 258.257 1829.24L262.353 1833.39C392.273 1705.43 393.863 1495.58 265.897 1365.66C201.957 1300.71 117.488 1267.84 32.804 1267.2Z" fill="#F9F9F9"/>
<path d="M32.5663 1298.58C-44.0973 1298 -120.982 1326.6 -179.763 1384.5L-175.667 1388.66C-60.3758 1275.1 125.824 1276.51 239.382 1391.8C294.403 1447.66 324.375 1521.6 323.781 1599.99C323.187 1678.38 292.098 1751.86 236.237 1806.88L240.333 1811.04C297.315 1754.94 329.001 1679.98 329.607 1600.04C330.212 1520.09 299.636 1444.66 243.54 1387.7C185.643 1328.92 109.23 1299.16 32.5663 1298.58Z" fill="#F9F9F9"/>
<path d="M32.3285 1329.96C-36.2853 1329.44 -105.097 1355.03 -157.743 1406.88L-153.647 1411.04C-50.6843 1309.63 115.581 1310.89 216.996 1413.85C318.41 1516.81 317.151 1683.08 214.188 1784.49L218.284 1788.65C323.547 1684.97 324.835 1514.99 221.155 1409.72C169.358 1357.14 100.942 1330.48 32.3285 1329.96Z" fill="#F9F9F9"/>
<path d="M209.768 1942.8L193.006 1925.81L192.878 1942.67L209.768 1942.8Z" fill="#F9F9F9"/>
<path d="M241.031 1943.04L193.243 1894.52L193.115 1911.38L224.17 1942.91L241.031 1943.04Z" fill="#F9F9F9"/>
<path d="M334.643 1943.75L193.952 1800.94L193.826 1817.54L318.016 1943.62L334.643 1943.75Z" fill="#F9F9F9"/>
<path d="M303.614 1943.51L193.717 1831.97L193.589 1848.83L286.754 1943.38L303.614 1943.51Z" fill="#F9F9F9"/>
<path d="M272.322 1943.28L193.48 1863.23L193.352 1880.12L255.462 1943.15L272.322 1943.28Z" fill="#F9F9F9"/>
<path d="M1559.25 15.7141C1554.94 15.7141 1551.4 12.213 1551.4 7.85703C1551.4 3.54177 1554.9 0 1559.25 0C1563.61 0 1567.11 3.50106 1567.11 7.85703C1567.11 12.1723 1563.57 15.7141 1559.25 15.7141Z" fill="#C8CDD3"/>
<path d="M1633.1 15.7141C1628.79 15.7141 1625.25 12.213 1625.25 7.85703C1625.25 3.54177 1628.75 0 1633.1 0C1637.42 0 1640.96 3.50106 1640.96 7.85703C1640.92 12.1723 1637.42 15.7141 1633.1 15.7141Z" fill="#C8CDD3"/>
<path d="M1706.91 15.7141C1702.59 15.7141 1699.05 12.213 1699.05 7.85703C1699.05 3.54177 1702.55 0 1706.91 0C1711.23 0 1714.77 3.50106 1714.77 7.85703C1714.77 12.1723 1711.27 15.7141 1706.91 15.7141Z" fill="#C8CDD3"/>
<path d="M1780.76 15.7141C1776.44 15.7141 1772.9 12.213 1772.9 7.85703C1772.9 3.54177 1776.4 0 1780.76 0C1785.07 0 1788.61 3.50106 1788.61 7.85703C1788.61 12.1723 1785.07 15.7141 1780.76 15.7141Z" fill="#C8CDD3"/>
<path d="M1854.57 15.7141C1850.25 15.7141 1846.71 12.213 1846.71 7.85703C1846.71 3.54177 1850.21 0 1854.57 0C1858.88 0 1862.42 3.50106 1862.42 7.85703C1862.42 12.1723 1858.92 15.7141 1854.57 15.7141Z" fill="#C8CDD3"/>
<path d="M1559.25 83.0485C1554.94 83.0485 1551.4 79.5475 1551.4 75.1915C1551.4 70.8762 1554.9 67.3345 1559.25 67.3345C1563.61 67.3345 1567.11 70.8355 1567.11 75.1915C1567.11 79.5068 1563.57 83.0485 1559.25 83.0485Z" fill="#C8CDD3"/>
<path d="M1633.1 83.0485C1628.79 83.0485 1625.25 79.5475 1625.25 75.1915C1625.25 70.8762 1628.75 67.3345 1633.1 67.3345C1637.42 67.3345 1640.96 70.8355 1640.96 75.1915C1640.92 79.5068 1637.42 83.0485 1633.1 83.0485Z" fill="#C8CDD3"/>
<path d="M1706.91 83.0485C1702.59 83.0485 1699.05 79.5475 1699.05 75.1915C1699.05 70.8762 1702.55 67.3345 1706.91 67.3345C1711.23 67.3345 1714.77 70.8355 1714.77 75.1915C1714.77 79.5068 1711.27 83.0485 1706.91 83.0485Z" fill="#C8CDD3"/>
<path d="M1780.76 83.0485C1776.44 83.0485 1772.9 79.5475 1772.9 75.1915C1772.9 70.8762 1776.4 67.3345 1780.76 67.3345C1785.07 67.3345 1788.61 70.8355 1788.61 75.1915C1788.61 79.5068 1785.07 83.0485 1780.76 83.0485Z" fill="#C8CDD3"/>
<path d="M1854.57 83.0485C1850.25 83.0485 1846.71 79.5475 1846.71 75.1915C1846.71 70.8762 1850.21 67.3345 1854.57 67.3345C1858.88 67.3345 1862.42 70.8355 1862.42 75.1915C1862.42 79.5068 1858.92 83.0485 1854.57 83.0485Z" fill="#C8CDD3"/>
<path d="M1559.25 150.342C1554.94 150.342 1551.4 146.841 1551.4 142.485C1551.4 138.17 1554.9 134.628 1559.25 134.628C1563.61 134.628 1567.11 138.129 1567.11 142.485C1567.11 146.841 1563.57 150.342 1559.25 150.342Z" fill="#C8CDD3"/>
<path d="M1633.1 150.342C1628.79 150.342 1625.25 146.841 1625.25 142.485C1625.25 138.17 1628.75 134.628 1633.1 134.628C1637.42 134.628 1640.96 138.129 1640.96 142.485C1640.92 146.841 1637.42 150.342 1633.1 150.342Z" fill="#C8CDD3"/>
<path d="M1706.91 150.342C1702.59 150.342 1699.05 146.841 1699.05 142.485C1699.05 138.17 1702.55 134.628 1706.91 134.628C1711.23 134.628 1714.77 138.129 1714.77 142.485C1714.77 146.841 1711.27 150.342 1706.91 150.342Z" fill="#C8CDD3"/>
<path d="M1780.76 150.342C1776.44 150.342 1772.9 146.841 1772.9 142.485C1772.9 138.17 1776.4 134.628 1780.76 134.628C1785.07 134.628 1788.61 138.129 1788.61 142.485C1788.61 146.841 1785.07 150.342 1780.76 150.342Z" fill="#C8CDD3"/>
<path d="M1854.57 150.342C1850.25 150.342 1846.71 146.841 1846.71 142.485C1846.71 138.17 1850.21 134.628 1854.57 134.628C1858.88 134.628 1862.42 138.129 1862.42 142.485C1862.42 146.841 1858.92 150.342 1854.57 150.342Z" fill="#C8CDD3"/>
<path d="M1559.25 217.676C1554.94 217.676 1551.4 214.175 1551.4 209.819C1551.4 205.504 1554.9 201.962 1559.25 201.962C1563.61 201.962 1567.11 205.463 1567.11 209.819C1567.11 214.134 1563.57 217.676 1559.25 217.676Z" fill="#C8CDD3"/>
<path d="M1633.1 217.676C1628.79 217.676 1625.25 214.175 1625.25 209.819C1625.25 205.504 1628.75 201.962 1633.1 201.962C1637.42 201.962 1640.96 205.463 1640.96 209.819C1640.92 214.134 1637.42 217.676 1633.1 217.676Z" fill="#C8CDD3"/>
<path d="M1706.91 217.676C1702.59 217.676 1699.05 214.175 1699.05 209.819C1699.05 205.504 1702.55 201.962 1706.91 201.962C1711.23 201.962 1714.77 205.463 1714.77 209.819C1714.77 214.134 1711.27 217.676 1706.91 217.676Z" fill="#C8CDD3"/>
<path d="M1780.76 217.676C1776.44 217.676 1772.9 214.175 1772.9 209.819C1772.9 205.504 1776.4 201.962 1780.76 201.962C1785.07 201.962 1788.61 205.463 1788.61 209.819C1788.61 214.134 1785.07 217.676 1780.76 217.676Z" fill="#C8CDD3"/>
<path d="M1854.57 217.676C1850.25 217.676 1846.71 214.175 1846.71 209.819C1846.71 205.504 1850.21 201.962 1854.57 201.962C1858.88 201.962 1862.42 205.463 1862.42 209.819C1862.42 214.134 1858.92 217.676 1854.57 217.676Z" fill="#C8CDD3"/>
<path d="M1559.25 285.011C1554.94 285.011 1551.4 281.51 1551.4 277.154C1551.4 272.838 1554.9 269.297 1559.25 269.297C1563.61 269.297 1567.11 272.798 1567.11 277.154C1567.11 281.469 1563.57 285.011 1559.25 285.011Z" fill="#C8CDD3"/>
<path d="M1633.1 285.011C1628.79 285.011 1625.25 281.51 1625.25 277.154C1625.25 272.838 1628.75 269.297 1633.1 269.297C1637.42 269.297 1640.96 272.798 1640.96 277.154C1640.92 281.469 1637.42 285.011 1633.1 285.011Z" fill="#C8CDD3"/>
<path d="M1706.91 285.011C1702.59 285.011 1699.05 281.51 1699.05 277.154C1699.05 272.838 1702.55 269.297 1706.91 269.297C1711.23 269.297 1714.77 272.798 1714.77 277.154C1714.77 281.469 1711.27 285.011 1706.91 285.011Z" fill="#C8CDD3"/>
<path d="M1780.76 285.011C1776.44 285.011 1772.9 281.51 1772.9 277.154C1772.9 272.838 1776.4 269.297 1780.76 269.297C1785.07 269.297 1788.61 272.798 1788.61 277.154C1788.61 281.469 1785.07 285.011 1780.76 285.011Z" fill="#C8CDD3"/>
<path d="M1854.57 285.011C1850.25 285.011 1846.71 281.51 1846.71 277.154C1846.71 272.838 1850.21 269.297 1854.57 269.297C1858.88 269.297 1862.42 272.798 1862.42 277.154C1862.42 281.469 1858.92 285.011 1854.57 285.011Z" fill="#C8CDD3"/>
<path d="M1559.25 352.304C1554.94 352.304 1551.4 348.803 1551.4 344.447C1551.4 340.132 1554.9 336.59 1559.25 336.59C1563.61 336.59 1567.11 340.091 1567.11 344.447C1567.11 348.803 1563.57 352.304 1559.25 352.304Z" fill="#C8CDD3"/>
<path d="M1633.1 352.304C1628.79 352.304 1625.25 348.803 1625.25 344.447C1625.25 340.132 1628.75 336.59 1633.1 336.59C1637.42 336.59 1640.96 340.091 1640.96 344.447C1640.92 348.803 1637.42 352.304 1633.1 352.304Z" fill="#C8CDD3"/>
<path d="M1706.91 352.304C1702.59 352.304 1699.05 348.803 1699.05 344.447C1699.05 340.132 1702.55 336.59 1706.91 336.59C1711.23 336.59 1714.77 340.091 1714.77 344.447C1714.77 348.803 1711.27 352.304 1706.91 352.304Z" fill="#C8CDD3"/>
<path d="M1780.76 352.304C1776.44 352.304 1772.9 348.803 1772.9 344.447C1772.9 340.132 1776.4 336.59 1780.76 336.59C1785.07 336.59 1788.61 340.091 1788.61 344.447C1788.61 348.803 1785.07 352.304 1780.76 352.304Z" fill="#C8CDD3"/>
<path d="M1854.57 352.304C1850.25 352.304 1846.71 348.803 1846.71 344.447C1846.71 340.132 1850.21 336.59 1854.57 336.59C1858.88 336.59 1862.42 340.091 1862.42 344.447C1862.42 348.803 1858.92 352.304 1854.57 352.304Z" fill="#C8CDD3"/>
<path d="M1870.24 405.105L1524 58.8667H1870.24V405.105Z" fill="#F8F8F8"/>
<g filter="url(#filter0_ddii_1059_3)">
<circle r="209.5" transform="matrix(1 0 0 -1 -119.5 840.5)" fill="url(#paint0_radial_1059_3)"/>
<circle r="209" transform="matrix(1 0 0 -1 -119.5 840.5)" stroke="url(#paint1_linear_1059_3)"/>
</g>
<g filter="url(#filter1_ddii_1059_3)">
<circle r="209.5" transform="matrix(1 0 0 -1 -119.5 592.5)" fill="url(#paint2_radial_1059_3)"/>
<circle r="209" transform="matrix(1 0 0 -1 -119.5 592.5)" stroke="url(#paint3_linear_1059_3)"/>
</g>
<defs>
<filter id="filter0_ddii_1059_3" x="-409" y="551" width="597" height="597" filterUnits="userSpaceOnUse" color-interpolation-filters="sRGB">
<feFlood flood-opacity="0" result="BackgroundImageFix"/>
<feColorMatrix in="SourceAlpha" type="matrix" values="0 0 0 0 0 0 0 0 0 0 0 0 0 0 0 0 0 0 127 0" result="hardAlpha"/>
<feOffset dx="34" dy="34"/>
<feGaussianBlur stdDeviation="32"/>
<feColorMatrix type="matrix" values="0 0 0 0 0.196078 0 0 0 0 0.211765 0 0 0 0 0.301961 0 0 0 0.48 0"/>
<feBlend mode="multiply" in2="BackgroundImageFix" result="effect1_dropShadow_1059_3"/>
<feColorMatrix in="SourceAlpha" type="matrix" values="0 0 0 0 0 0 0 0 0 0 0 0 0 0 0 0 0 0 127 0" result="hardAlpha"/>
<feOffset dx="-32" dy="-32"/>
<feGaussianBlur stdDeviation="24"/>
<feColorMatrix type="matrix" values="0 0 0 0 0.298039 0 0 0 0 0.32549 0 0 0 0 0.462745 0 0 0 0.17 0"/>
<feBlend mode="normal" in2="effect1_dropShadow_1059_3" result="effect2_dropShadow_1059_3"/>
<feBlend mode="normal" in="SourceGraphic" in2="effect2_dropShadow_1059_3" result="shape"/>
<feColorMatrix in="SourceAlpha" type="matrix" values="0 0 0 0 0 0 0 0 0 0 0 0 0 0 0 0 0 0 127 0" result="hardAlpha"/>
<feOffset dx="2" dy="2"/>
<feGaussianBlur stdDeviation="1"/>
<feComposite in2="hardAlpha" operator="arithmetic" k2="-1" k3="1"/>
<feColorMatrix type="matrix" values="0 0 0 0 0.324479 0 0 0 0 0.360489 0 0 0 0 0.533333 0 0 0 0.11 0"/>
<feBlend mode="screen" in2="shape" result="effect3_innerShadow_1059_3"/>
<feColorMatrix in="SourceAlpha" type="matrix" values="0 0 0 0 0 0 0 0 0 0 0 0 0 0 0 0 0 0 127 0" result="hardAlpha"/>
<feOffset dx="-1" dy="-1"/>
<feGaussianBlur stdDeviation="2"/>
<feComposite in2="hardAlpha" operator="arithmetic" k2="-1" k3="1"/>
<feColorMatrix type="matrix" values="0 0 0 0 0.172549 0 0 0 0 0.188235 0 0 0 0 0.266667 0 0 0 0.2 0"/>
<feBlend mode="multiply" in2="effect3_innerShadow_1059_3" result="effect4_innerShadow_1059_3"/>
</filter>
<filter id="filter1_ddii_1059_3" x="-409" y="303" width="597" height="597" filterUnits="userSpaceOnUse" color-interpolation-filters="sRGB">
<feFlood flood-opacity="0" result="BackgroundImageFix"/>
<feColorMatrix in="SourceAlpha" type="matrix" values="0 0 0 0 0 0 0 0 0 0 0 0 0 0 0 0 0 0 127 0" result="hardAlpha"/>
<feOffset dx="34" dy="34"/>
<feGaussianBlur stdDeviation="32"/>
<feColorMatrix type="matrix" values="0 0 0 0 0.196078 0 0 0 0 0.211765 0 0 0 0 0.301961 0 0 0 0.48 0"/>
<feBlend mode="multiply" in2="BackgroundImageFix" result="effect1_dropShadow_1059_3"/>
<feColorMatrix in="SourceAlpha" type="matrix" values="0 0 0 0 0 0 0 0 0 0 0 0 0 0 0 0 0 0 127 0" result="hardAlpha"/>
<feOffset dx="-32" dy="-32"/>
<feGaussianBlur stdDeviation="24"/>
<feColorMatrix type="matrix" values="0 0 0 0 0.298039 0 0 0 0 0.32549 0 0 0 0 0.462745 0 0 0 0.17 0"/>
<feBlend mode="normal" in2="effect1_dropShadow_1059_3" result="effect2_dropShadow_1059_3"/>
<feBlend mode="normal" in="SourceGraphic" in2="effect2_dropShadow_1059_3" result="shape"/>
<feColorMatrix in="SourceAlpha" type="matrix" values="0 0 0 0 0 0 0 0 0 0 0 0 0 0 0 0 0 0 127 0" result="hardAlpha"/>
<feOffset dx="2" dy="2"/>
<feGaussianBlur stdDeviation="1"/>
<feComposite in2="hardAlpha" operator="arithmetic" k2="-1" k3="1"/>
<feColorMatrix type="matrix" values="0 0 0 0 0.324479 0 0 0 0 0.360489 0 0 0 0 0.533333 0 0 0 0.11 0"/>
<feBlend mode="screen" in2="shape" result="effect3_innerShadow_1059_3"/>
<feColorMatrix in="SourceAlpha" type="matrix" values="0 0 0 0 0 0 0 0 0 0 0 0 0 0 0 0 0 0 127 0" result="hardAlpha"/>
<feOffset dx="-1" dy="-1"/>
<feGaussianBlur stdDeviation="2"/>
<feComposite in2="hardAlpha" operator="arithmetic" k2="-1" k3="1"/>
<feColorMatrix type="matrix" values="0 0 0 0 0.172549 0 0 0 0 0.188235 0 0 0 0 0.266667 0 0 0 0.2 0"/>
<feBlend mode="multiply" in2="effect3_innerShadow_1059_3" result="effect4_innerShadow_1059_3"/>
</filter>
<radialGradient id="paint0_radial_1059_3" cx="0" cy="0" r="1" gradientUnits="userSpaceOnUse" gradientTransform="rotate(45) scale(592.555 882.179)">
<stop offset="0.0503676" stop-color="#1E242C"/>
<stop offset="0.825281" stop-color="#1E242C"/>
</radialGradient>
<linearGradient id="paint1_linear_1059_3" x1="0" y1="0" x2="313.054" y2="316.609" gradientUnits="userSpaceOnUse">
<stop stop-color="#5D658E" stop-opacity="0.48"/>
<stop offset="0.909911" stop-color="#23273E" stop-opacity="0"/>
</linearGradient>
<radialGradient id="paint2_radial_1059_3" cx="0" cy="0" r="1" gradientUnits="userSpaceOnUse" gradientTransform="rotate(45) scale(592.555 882.179)">
<stop offset="0.0503676" stop-color="#DF1A1A"/>
<stop offset="0.825281" stop-color="#371510"/>
</radialGradient>
<linearGradient id="paint3_linear_1059_3" x1="0" y1="0" x2="313.054" y2="316.609" gradientUnits="userSpaceOnUse">
<stop stop-color="#5D658E" stop-opacity="0.48"/>
<stop offset="0.909911" stop-color="#23273E" stop-opacity="0"/>
</linearGradient>
</defs>
</svg>
